<?xml version="1.0" encoding="UTF-8" standalone="no"?>
<!-- Created with Inkscape (http://www.inkscape.org/) -->

<svg
   xmlns:dc="http://purl.org/dc/elements/1.1/"
   xmlns:cc="http://creativecommons.org/ns#"
   xmlns:rdf="http://www.w3.org/1999/02/22-rdf-syntax-ns#"
   xmlns:svg="http://www.w3.org/2000/svg"
   xmlns="http://www.w3.org/2000/svg"
   xmlns:xlink="http://www.w3.org/1999/xlink"
   xmlns:sodipodi="http://sodipodi.sourceforge.net/DTD/sodipodi-0.dtd"
   xmlns:inkscape="http://www.inkscape.org/namespaces/inkscape"
   id="svg2"
   version="1.1"
   inkscape:version="0.48.3.1 r9886"
   width="248"
   height="144"
   sodipodi:docname="lyonrb.png">
  <metadata
     id="metadata8">
    <rdf:RDF>
      <cc:Work
         rdf:about="">
        <dc:format>image/svg+xml</dc:format>
        <dc:type
           rdf:resource="http://purl.org/dc/dcmitype/StillImage" />
        <dc:title></dc:title>
      </cc:Work>
    </rdf:RDF>
  </metadata>
  <defs
     id="defs6" />
  <sodipodi:namedview
     pagecolor="#ffffff"
     bordercolor="#666666"
     borderopacity="1"
     objecttolerance="10"
     gridtolerance="10"
     guidetolerance="10"
     inkscape:pageopacity="0"
     inkscape:pageshadow="2"
     inkscape:window-width="640"
     inkscape:window-height="480"
     id="namedview4"
     showgrid="false"
     inkscape:zoom="2.0757006"
     inkscape:cx="96.169785"
     inkscape:cy="93.705539"
     inkscape:window-x="0"
     inkscape:window-y="24"
     inkscape:window-maximized="0"
     inkscape:current-layer="svg2" />
  <image
     sodipodi:absref="/home/fabien/community/git/rulu2014/source/img/source/img/lyonrb.png"
     xlink:href="source/img/lyonrb.png"
     y="0"
     x="0"
     id="image10"
     height="144"
     width="248" />
  <g
     id="g3059"
     inkscape:export-filename="/home/fabien/community/git/rulu2014/source/img/lyonrb_vectorized.png"
     inkscape:export-xdpi="90"
     inkscape:export-ydpi="90">
    <path
       style="fill:#f5f5f4"
       d="m 0,72 0,-72 124,0 124,0 0,72 0,72 -124,0 -124,0 0,-72 z"
       id="path3075"
       inkscape:connector-curvature="0" />
    <path
       style="fill:#dbdcd2"
       d="M 43.101541,114.2928 C 42.552313,112.20676 41.342801,107.35 40.413737,103.5 39.484672,99.65 38.33651,96.0725 37.862264,95.55 36.395945,93.934482 36.875162,92.405906 40.5,87.136319 42.425,84.337861 44,81.450641 44,80.720274 44,79.989907 42.425,77.865783 40.5,76 c -4.275118,-4.143607 -4.652452,-2.382163 -0.502265,2.344639 2.596413,2.957152 2.798401,3.579663 1.508782,4.649953 -1.229518,1.020409 -2.014988,0.672599 -4.507978,-1.996156 -3.425045,-3.666522 -4.50434,-6.847026 -3.577148,-10.541256 1.129104,-4.498708 3.361202,-4.103566 9.157986,1.621211 6.345662,6.266837 6.956146,9.477146 2.848143,14.977329 C 41.981139,91.670061 40.753286,94 41.767958,94 43.048104,94 51,82.324314 51,80.444688 51,79.535521 46.549542,74.211399 41.110094,68.613305 l -9.889906,-10.178353 -0.02892,-9.135953 c -0.02435,-7.694018 0.267745,-9.404428 1.850695,-10.836978 1.789791,-1.619739 2.103907,-1.503591 6.573374,2.430591 2.58157,2.272389 4.961715,3.86653 5.289211,3.542535 0.327497,-0.323994 1.047735,-2.691946 1.60053,-5.262114 L 47.510164,34.5 57.578232,34.216969 c 8.970958,-0.252189 10.359762,-0.05358 12.744918,1.822581 3.70953,2.917917 3.824515,9.903694 0.222305,13.505905 C 67.299051,52.791858 65.211571,52.684204 64.816422,49.25 64.589863,47.280994 63.861005,46.409248 62.25,46.180449 60.804043,45.97509 60,45.171048 60,43.930449 60,41.08112 65.391149,41.292656 67.443296,44.222506 68.992442,46.434222 69,46.429642 69,43.27921 69,38.759868 66.011354,37 58.336511,37 c -3.420162,0 -6.519085,0.486394 -6.886494,1.080875 -1.117204,1.807673 -3.376503,12.208766 -3.414395,15.718785 -0.05506,5.100045 1.874788,7.755728 15.395079,21.185334 C 74.06637,85.549327 76,87.091563 76,85.01009 c 0,-1.690613 -2.045132,-4.520822 -6.539604,-9.05 -4.800622,-4.837692 -6.361801,-7.05345 -5.870958,-8.332567 0.367756,-0.958355 1.285578,-1.505726 2.039604,-1.216378 0.955966,0.366838 1.366323,-0.296846 1.355645,-2.19253 -0.01985,-3.524163 -0.781482,-4.579193 -4.787868,-6.632264 C 56.445446,54.639063 55,52.512846 55,47 c 0,-4.286388 0.277625,-5 1.945209,-5 1.611155,0 1.997551,0.815724 2.25,4.75 0.271126,4.22535 0.662447,4.928677 3.542888,6.367677 1.780954,0.889722 3.921112,2.184529 4.755908,2.877348 1.263491,1.048604 1.864096,0.81944 3.584483,-1.367677 C 72.74321,52.510997 73.990349,52 77.490793,52 82.003251,52 85,52.743802 85,53.863807 c 0,0.357406 -2.884955,4.689881 -6.411011,9.627722 l -6.411011,8.977893 3.911011,4.242946 C 78.989658,79.859222 80,81.807769 80,84.255151 80,87.757865 77.659876,92 75.727645,92 75.090224,92 72.418554,89.882187 69.7906,87.293749 c -3.226639,-3.178121 -5.107059,-4.37729 -5.791214,-3.693135 -0.684156,0.684156 -0.05175,1.723889 1.947659,3.202114 2.027686,1.499133 3.15294,3.372115 3.570529,5.943134 C 70.630115,99.595577 71.62353,101 75.356116,101 c 4.325318,0 5.854379,1.87132 5.45841,6.68021 L 80.5,111.5 l -5.910134,0.30468 c -5.850686,0.30162 -5.958307,0.25724 -10.699322,-4.41249 -3.66732,-3.61218 -4.859622,-5.5556 -5.089866,-8.296365 -0.380184,-4.525606 -2.548304,-4.977208 -5.545336,-1.15505 C 50.545044,101.39726 51.038714,107 54.053571,107 c 3.069321,0 5.080544,2.9111 4.749379,6.87438 L 58.5,117.5 l -7.199931,0.2928 -7.199932,0.2928 -0.998596,-3.7928 z M 55,112.5 c 0,-0.99184 -0.992032,-1.5 -2.928284,-1.5 -2.724958,0 -3.011722,-0.37284 -4.129957,-5.36964 -1.191314,-5.32336 -1.172536,-5.40923 2.178283,-9.961004 C 52.771921,92.067027 54.12927,91.069599 56.421259,91.039 60.430361,90.985477 63,93.580074 63,97.681637 c 0,2.385093 0.92483,4.387983 3.160678,6.845013 2.697598,2.96446 3.808653,3.47335 7.583333,3.47335 5.475674,0 5.428708,-2.34539 -0.05626,-2.80947 C 69.64548,104.84852 67,102.09428 67,98.227834 c 0,-3.924587 -2.934864,-8.302672 -6.589302,-9.829593 -3.667206,-1.532257 -3.663757,-1.752186 0.109501,-6.982476 1.361216,-1.886845 1.324446,-2.246384 -0.388249,-3.796352 -1.80709,-1.635394 -1.922565,-1.589806 -2.576911,1.017318 -0.732408,2.918146 -10.856123,17.370735 -13.029302,18.600596 -1.048055,0.593124 -0.909315,2.30442 0.709392,8.750003 L 47.247386,114 l 3.876307,0 C 53.902633,114 55,113.57536 55,112.5 z M 53.65592,72.79657 C 53.33457,71.533457 49.005526,66.459382 44.035824,61.520849 36.402075,53.934979 35,52.908494 35,54.905551 c 0,1.633575 2.834644,5.254385 9.175529,11.720288 5.046541,5.14604 9.375584,9.156381 9.620096,8.911869 0.244512,-0.244512 0.181645,-1.478024 -0.139705,-2.741138 z M 75.906092,60.25 C 78.860388,56.400863 78.977914,56 77.152124,56 74.726321,56 71,60.90879 71,64.10437 71,66.605906 71.07001,66.550899 75.906092,60.25 z M 39.588933,46.115249 C 35.302097,41.828413 35,41.687537 35,43.975306 c 0,1.533149 1.58936,4.073356 4.25,6.792596 3.907525,3.993587 4.277312,4.166029 4.588933,2.139943 0.238064,-1.547829 -1.026782,-3.569378 -4.25,-6.792596 z M 188.36529,115.31929 c -0.82352,-3.28118 1.40566,-7.65385 4.16908,-8.1779 4.10136,-0.77777 4.57702,-5.19426 1.02701,-9.535732 -3.20878,-3.924164 -6.04506,-2.997443 -5.16608,1.687952 0.55107,2.93742 0.11819,3.76077 -4.22778,8.04138 l -4.8417,4.7689 -6.41291,-0.30194 L 166.5,111.5 166.17967,108.15646 C 165.78394,104.02606 168.25879,101 172.03254,101 c 3.36899,0 4.51982,-1.394916 5.29263,-6.415183 0.37923,-2.46347 1.76067,-5.109903 3.72567,-7.137272 2.15019,-2.218433 2.7546,-3.449754 1.94038,-3.952974 -0.71121,-0.43955 -3.05153,1.10994 -5.87126,3.887272 C 174.5412,89.921829 171.89581,92 171.24133,92 169.75988,92 167,86.812087 167,84.027317 c 0,-1.139602 1.8,-4.024773 4,-6.411491 2.2,-2.386718 4,-4.669126 4,-5.072017 0,-0.402891 -2.7,-4.472605 -6,-9.043809 -3.3,-4.571204 -6,-8.755597 -6,-9.298651 C 163,52.809455 165.53994,52 169.90747,52 c 2.65456,0 4.39719,0.695394 5.98915,2.389957 l 2.24525,2.389958 4.44415,-2.483882 C 187.6071,51.489698 189,49.485186 189,45.065741 189,42.666667 189.43491,42 191,42 c 1.61183,0 2,0.666667 2,3.4349 0,5.190122 -1.63636,8.463001 -5.17797,10.356422 C 182.513,58.629652 180,61.612874 180,65.07699 c 0,2.565907 0.25983,2.952259 1.36732,2.033124 1.0281,-0.853244 1.62763,-0.821123 2.41656,0.129472 0.78311,0.9436 -0.705,3.151944 -5.86733,8.70703 C 171.64039,82.700283 169.63207,86 171.7977,86 c 1.76753,0 27.07648,-26.650529 27.71143,-29.180349 0.38196,-1.521841 -0.13971,-6.274139 -1.20744,-10.999577 L 196.42175,37.5 l -7.7926,0 c -6.56005,0 -8.01692,0.307025 -9.21087,1.94113 C 178.63822,40.508751 178,42.221768 178,43.247834 c 0,1.728116 0.16376,1.750874 2.22251,0.30887 3.16028,-2.213547 8.02571,-2.089648 7.5906,0.193296 -0.18345,0.9625 -1.35943,1.896154 -2.61328,2.074787 -1.6052,0.228688 -2.45285,1.190312 -2.86479,3.25 -0.75041,3.752052 -2.50034,3.70591 -5.74615,-0.151512 -2.9261,-3.47748 -3.26251,-6.719954 -1.12588,-10.851754 C 177.41042,34.30565 178.50408,34 190.03146,34 l 9.86789,0 1.19432,6.070582 1.19431,6.070582 4.87611,-4.802788 c 4.03856,-3.977827 5.17325,-4.615669 6.60601,-3.713408 1.42938,0.900134 1.77092,2.878182 1.96603,11.386404 l 0.23612,10.297022 -9.48612,9.655281 C 200.21876,75.342797 197,79.376716 197,80.852177 c 0,2.259365 7.7598,13.721357 8.6719,12.809255 0.2717,-0.271696 -1.11833,-2.88816 -3.08895,-5.814364 C 200.61233,84.920864 199,81.606603 199,80.482045 c 0,-1.170621 2.54222,-4.560342 5.9471,-7.929697 5.07539,-5.022428 6.17472,-5.696136 7.5,-4.596251 2.7399,2.273915 1.96788,8.50168 -1.55069,12.509107 -3.47577,3.958675 -4.39559,4.282305 -5.32052,1.871973 -0.40351,-1.051527 0.29241,-2.634054 1.89301,-4.304719 3.42055,-3.570276 3.36729,-6.163235 -0.0607,-2.956772 -4.83095,4.518727 -4.90809,5.552099 -0.85387,11.438649 2.63259,3.822395 3.53635,6.038394 3.13189,7.679248 -0.3127,1.268529 -1.8158,7.143917 -3.34024,13.056417 l -2.77171,10.75 -7.26807,0 c -7.04928,0 -7.28833,-0.0807 -7.94089,-2.68071 z m 13.87688,-9.21334 1.856,-7.394044 -2.39789,-2.605953 c -3.67031,-3.988781 -11.36736,-15.323369 -12.16131,-17.908603 -0.56832,-1.850534 -0.98517,-2.071925 -2.12307,-1.127555 -1.89929,1.576276 -1.78955,2.596725 0.64733,6.01901 C 190.1676,86.044119 189.95519,88 187.52988,88 185.42183,88 181,93.872707 181,96.672433 c 0,4.158717 -3.11063,8.450477 -5.99495,8.271277 C 170.81647,104.68348 170,104.93736 170,106.5 c 0,1.07044 1.08931,1.5 3.80383,1.5 5.064,0 10.82733,-5.54583 10.36306,-9.971958 C 183.78376,94.37552 186.96395,91 190.78824,91 c 2.07792,0 3.74022,1.138884 6.52514,4.470534 l 3.7369,4.470534 -1.3374,5.279462 c -1.166,4.60283 -1.70335,5.34355 -4.19265,5.77947 -1.57038,0.275 -3.05175,1.09067 -3.29193,1.81259 -0.32516,0.97736 0.66081,1.23275 3.86059,1 l 4.29728,-0.31259 1.856,-7.39405 z m 10.35746,-50.419846 c 1.27267,-4.009841 -1.01047,-2.732885 -8.70233,4.867205 C 196.17182,68.186608 193,72.444092 193,75.18059 c 0,1.656929 18.83114,-17.07319 19.59963,-19.494486 z m -38.15378,2.871589 C 173.52412,57.150962 171.89937,56 170.8353,56 c -2.07527,0 -2.11312,-0.108993 2.1647,6.234982 2.38134,3.531517 2.51475,3.592932 2.81086,1.293945 0.17097,-1.327447 -0.44329,-3.564502 -1.36501,-4.971234 z m 38.1344,-12.883054 c 1.14863,-3.48075 -0.64401,-3.028481 -5.02038,1.266601 -5.56016,5.456887 -5.13975,8.47872 0.52638,3.78353 2.1404,-1.773623 4.1627,-4.046182 4.494,-5.050131 z M 103.32224,114.60292 c -6.147776,-0.60661 -11.451179,-1.38132 -11.785345,-1.72159 -0.334166,-0.34027 4.020828,-0.93807 9.677765,-1.32845 5.65694,-0.39037 13.43534,-1.1102 17.28534,-1.59962 6.50545,-0.82699 34.03402,1.18754 38.5,2.81741 2.58182,0.94225 -19.96992,3.10189 -31.5,3.01656 -6.05,-0.0448 -16.02999,-0.57771 -22.17776,-1.18431 z m 19.07325,-14.718398 c -1.0295,-1.137586 -7.74525,-4.892388 -14.9239,-8.344006 C 93.963304,85.045498 89.407359,81.474042 87.33212,75.752961 85.62381,71.043441 85.710139,64.485452 87.5,63 88.699543,62.004468 89,59.015431 89,48.077555 89,39.916766 88.57932,33.97932 87.957021,33.357021 c -0.60903,-0.60903 -0.921081,-4.540864 -0.75,-9.45 L 87.5,15.5 l 37,0 37,0 0.29151,7.719382 c 0.2068,5.476016 -0.15647,8.585693 -1.25,10.700341 -2.14013,4.138568 -2.19503,24.833986 -0.0733,27.639147 0.90247,1.193174 1.47901,4.253049 1.49626,7.94113 0.048,10.270209 -3.61323,14.158969 -20.97711,22.280512 -5.76804,2.697867 -11.8897,6.090317 -13.60369,7.538779 l -3.11635,2.633569 -1.87182,-2.068338 z m 6.01037,-5.514342 c 2.12857,-1.446401 8.42053,-4.769166 13.98213,-7.383923 10.47162,-4.92317 13.72545,-7.497987 15.5454,-12.301357 C 159.46011,70.655434 159.24904,65.451573 157.5,64 c -2.15963,-1.792333 -2.13239,-29.579813 0.0318,-32.44113 1.47847,-1.95471 1.98799,-9.040743 0.86121,-11.977083 C 157.85604,18.182457 153.87651,18 123.89301,18 L 90,18 l 0,6.440983 c 0,3.542541 0.45,6.719098 1,7.059017 0.59654,0.368682 1,6.824045 1,16 0,9.175955 -0.40346,15.631318 -1,16 -1.548915,0.957282 -1.180059,9.318297 0.574176,13.015072 1.960587,4.131629 6.255261,6.995824 18.582214,12.392812 5.31102,2.325269 10.44326,5.097242 11.40499,6.159939 2.21403,2.446482 2.21809,2.446069 6.84448,-0.697643 z M 109.74582,84.808929 C 102.99978,81.427321 97.320142,77.892038 96.415627,76.511574 94.638173,73.798837 94.362774,67.968597 94.75,41.25 L 95,24 l 14.7,0 c 18.17242,0 18.40277,1.807058 0.28265,2.217354 L 97.5,26.5 97.230851,49.396302 c -0.231471,19.691073 -0.04324,23.241081 1.344604,25.359201 1.38561,2.114707 8.884095,6.124514 20.612845,11.022699 2.95833,1.235468 5.86634,5.336299 3.59688,5.072291 -0.70685,-0.08223 -6.57456,-2.800933 -13.03936,-6.041564 z M 124.98042,82.191268 124.96084,73.5 114.48042,62.511774 C 108.71619,56.46825 104,50.966214 104,50.285027 c 0,-0.681186 2.33674,-3.085603 5.19274,-5.343148 4.81402,-3.805261 5.57736,-4.08046 10.4662,-3.773254 L 124.93239,41.5 125.21619,33 125.5,24.5 139.25,24.22178 153,23.943561 152.995,49.22178 c -0.006,30.425417 1.02312,28.13328 -16.24503,36.183224 L 125,90.882537 124.98042,82.191268 z M 103.49948,42.358866 c -0.9083,-1.386243 -1.3576,-3.271588 -0.99845,-4.189654 0.55104,-1.408567 1.03057,-1.200766 3.07102,1.330788 2.81067,3.487157 2.93605,4.091045 1.00342,4.832666 -0.83205,0.319286 -2.1114,-0.501646 -3.07599,-1.9738 z M 116,36.073324 C 116,33.119258 116.41217,32 117.5,32 c 0.89333,0 1.56067,1.011111 1.65,2.5 0.0825,1.375 0.195,3.056337 0.25,3.736305 0.055,0.679968 -0.6875,1.387964 -1.65,1.573324 -1.43541,0.276435 -1.75,-0.395227 -1.75,-3.736305 z"
       id="path3073"
       inkscape:connector-curvature="0" />
    <path
       style="fill:#989ea3"
       d="M 41.536968,107.29055 C 40.004734,101.35575 38.315476,95.664322 37.783062,94.642938 37.026317,93.191196 37.599126,91.647415 40.407519,87.569754 42.383383,84.700886 44,81.687339 44,80.872982 44,80.058625 42.425,77.865783 40.5,76 c -4.074228,-3.948897 -4.705925,-2.586612 -0.898679,1.938044 1.63156,1.938999 2.361484,3.716501 1.957974,4.768032 -0.543478,1.416281 -1.176707,1.142328 -4.079172,-1.764769 C 33.032075,76.486162 32.123949,72.274435 34.8973,68.962634 L 36.959546,66.5 42.479773,72.162059 C 49.140865,78.994295 49.428993,81.272086 44.5,88.132885 40.769154,93.32595 40.472854,94 41.920923,94 43.376279,94 51,82.711925 51,80.557051 51,79.441364 46.784665,74.330404 41.1,68.553616 l -9.9,-10.060436 0,-8.759301 c 0,-7.015503 0.365149,-9.204699 1.834187,-10.99659 L 34.868375,36.5 l 4.874839,4.774307 c 4.736299,4.638623 6.250855,5.076137 6.262363,1.809026 C 46.008644,42.2125 46.479796,39.8125 47.052581,37.75 l 1.041427,-3.75 9.998451,0 c 9.282305,0 10.174258,0.175808 12.452996,2.454545 3.471719,3.47172 3.389093,9.33818 -0.181819,12.909091 C 66.844061,52.883212 65,52.758191 65,49 65,46.466667 64.611111,46 62.5,46 60.666667,46 60,45.466667 60,44 c 0,-2.65757 4.294465,-2.705535 6.922681,-0.07732 1.566161,1.566161 2.024531,1.657265 2.471948,0.491316 0.777249,-2.02548 -0.933051,-6.022895 -2.899812,-6.777612 C 65.582701,37.286373 61.731803,37 57.937265,37 c -7.775296,0 -6.862094,-1.07854 -9.313724,11 -0.833382,4.105857 -1.006721,7.60362 -0.470609,9.496281 0.528831,1.866955 5.881891,8.029451 14.202507,16.350067 10.531205,10.531205 13.491641,12.994538 14.005989,11.654168 0.469992,-1.224779 -1.312457,-3.72578 -6.380044,-8.952004 -4.942007,-5.096714 -6.844269,-7.742252 -6.399827,-8.90045 0.749895,-1.954194 2.072744,-2.149352 2.698205,-0.398062 0.942334,2.638534 1.815588,-0.224818 1.150223,-3.771517 -0.519756,-2.770541 -1.487061,-4.142881 -3.77253,-5.352184 C 57.466664,54.850584 55,51.559959 55,46.576923 55,43.175214 55.385154,42 56.5,42 c 0.922639,0 1.5,0.937211 1.5,2.4349 0,4.521365 1.834092,7.301383 6.559424,9.942422 l 4.704836,2.629583 2.432296,-2.624491 c 2.151569,-2.321582 3.00448,-2.569512 7.389857,-2.148133 2.726658,0.261998 5.197438,0.716237 5.490622,1.00942 0.293183,0.293184 -2.396995,4.688439 -5.978175,9.767233 l -6.511235,9.234172 3.956188,4.691804 c 4.484561,5.318423 5.122092,9.40169 2.0586,13.184943 l -1.897587,2.343421 -5.059572,-4.732637 C 68.362489,85.129687 65.691404,83 65.209508,83 c -2.290672,0 -1.87807,1.624461 1.308465,5.151574 C 69.010651,90.91067 70,92.942573 70,95.302881 70,99.463981 71.527309,101 75.664816,101 c 3.862999,0 5.611084,2.47894 5.145096,7.29621 -0.306531,3.16884 -0.374388,3.20711 -6.220046,3.50847 -5.858568,0.30203 -5.952362,0.26309 -10.75,-4.46241 C 59.793483,103.35674 59,101.97176 59,98.894581 c 0,-5.098354 -2.20739,-5.622528 -5.499772,-1.305993 -2.059,2.699492 -2.501537,4.128962 -1.993842,6.440492 0.423101,1.92636 1.273283,2.97092 2.418082,2.97092 2.899911,0 5.252096,3.43827 4.895867,7.15646 L 58.5,117.5 l -7.088576,0.29055 -7.088577,0.29055 -2.785879,-10.79055 z M 55.756322,112.75 c -0.22569,-0.6875 -1.771855,-1.38606 -3.435922,-1.55236 -2.782649,-0.27809 -3.123381,-0.7394 -4.243682,-5.74543 l -1.218105,-5.44307 3.691155,-4.504571 C 53.04349,92.461311 55.012861,91 56.620462,91 60.038183,91 63,94.387789 63,98.297052 c 0,2.494858 0.916433,4.191928 3.76657,6.975008 3.36429,3.28514 4.165312,3.61325 7.5,3.07211 C 76.319957,108.01095 78,107.43719 78,107.06916 c 0,-1.67725 -2.532878,-2.91258 -4.971735,-2.42481 -3.230178,0.64603 -5.384337,-2.08926 -6.330066,-8.037746 -0.705075,-4.43481 -3.72739,-8.146131 -7.38045,-9.06299 l -2.492592,-0.625601 2.672803,-3.504225 c 2.591652,-3.397831 2.620864,-3.583494 0.96214,-6.115028 l -1.710663,-2.610802 -1.25881,3.661632 c -1.22287,3.557093 -7.381281,12.546057 -12.115109,17.683505 -2.003223,2.174024 -2.204343,3.024535 -1.418817,5.999995 0.503397,1.9068 1.411419,5.37941 2.017827,7.71691 1.093439,4.21484 1.140156,4.25 5.647349,4.25 3.188016,0 4.422288,-0.37317 4.134445,-1.25 z M 54.263855,72.900982 C 53.677315,70.658049 37.371039,53 35.886348,53 35.398857,53 35,54.004045 35,55.231211 c 0,1.476777 3.10364,5.34781 9.178909,11.448445 9.020578,9.058242 11.174249,10.386825 10.084946,6.221326 z M 78.676977,55.343644 C 76.461509,53.128176 71,59.68986 71,64.567084 c 0,2.528703 0.341684,2.281343 4.101617,-2.969342 2.255889,-3.150313 3.864801,-5.964657 3.57536,-6.254098 z M 39.588933,46.115249 C 35.302097,41.828413 35,41.687537 35,43.975306 c 0,1.533149 1.58936,4.073356 4.25,6.792596 3.907525,3.993587 4.277312,4.166029 4.588933,2.139943 0.238064,-1.547829 -1.026782,-3.569378 -4.25,-6.792596 z M 188.37613,115.3625 c -0.8775,-3.49624 1.36726,-7.59372 4.57498,-8.35096 3.86482,-0.91236 4.34305,-4.97537 1.05919,-8.99892 -1.95345,-2.39347 -3.22237,-3.145219 -4.48872,-2.659274 -1.38368,0.530969 -1.62768,1.366136 -1.12843,3.862405 0.56624,2.831179 0.11189,3.718069 -4.09049,7.984599 C 179.66818,111.90558 179.4536,112 173.39458,112 166.85771,112 166,111.37053 166,106.5732 166,103.47215 169.02063,101 172.80969,101 c 2.6245,0 3.25413,-0.46037 3.76107,-2.75 1.44356,-6.520005 2.73015,-9.341539 5.11508,-11.217523 1.70159,-1.338473 2.32608,-2.559037 1.89031,-3.694637 -0.53591,-1.396564 -1.57622,-0.781869 -5.8949,3.483161 C 174.79697,89.66945 171.8658,92 171.16753,92 c -1.7983,0 -4.31692,-6.556608 -3.60627,-9.388044 0.32732,-1.304161 2.13494,-3.863647 4.01694,-5.687746 1.88199,-1.824099 3.4218,-3.716429 3.4218,-4.205178 0,-0.488749 -2.79455,-4.927982 -6.21011,-9.864962 -6.80962,-9.842887 -6.77358,-10.809004 0.40435,-10.838757 2.47331,-0.01025 4.6159,0.777472 6.48298,2.383469 l 2.78875,2.398783 4.64223,-2.352392 C 188.16022,51.885119 189,50.598472 189,45.418213 189,42.666667 189.39007,42 191,42 c 1.52883,0 1.9867,0.647853 1.94356,2.75 -0.11319,5.514623 -2.30802,9.209359 -7.44356,12.530302 -4.42846,2.863706 -5.03671,3.681926 -5.32119,7.158023 -0.28303,3.45845 -0.13593,3.770974 1.23817,2.630576 1.30045,-1.079282 1.66748,-1.012387 2.21058,0.402912 0.46884,1.221791 -1.20817,3.570813 -5.98817,8.38772 C 173.44773,80.08356 171,83.370443 171,84.775096 171,85.998793 171.3836,87 171.85245,87 c 0.46884,0 6.73957,-6.027639 13.93494,-13.394753 15.19719,-15.559918 15.50655,-16.260166 12.52798,-28.35695 L 196.40751,37.5 189.60152,37.20198 C 181.18544,36.833457 178,38.479618 178,43.197367 l 0,3.151261 2.31445,-2.174314 C 183.26418,41.403189 187,41.26692 187,43.930449 c 0,1.240599 -0.80404,2.044641 -2.25,2.25 -1.61101,0.228799 -2.33986,1.100545 -2.56642,3.069551 -0.17403,1.5125 -0.71144,2.75 -1.19424,2.75 -2.22837,0 -6.10153,-4.780598 -6.64641,-8.203609 -0.5094,-3.200019 -0.17533,-4.117835 2.45683,-6.75 C 179.78659,34.05956 180.04062,34 189.79297,34 l 9.94682,0 1.18836,6.040297 1.18835,6.040297 5.0499,-4.540297 C 209.94385,39.043134 212.60181,37 213.07297,37 c 1.88077,0 2.74164,3.953812 2.7836,12.784518 l 0.044,9.266267 -8.78196,8.724607 C 194.78108,80.032378 194.86,79.807822 200.14927,87.607634 204.15749,93.518349 206,95.26376 206,93.150038 c 0,-0.467478 -1.33538,-2.693406 -2.96752,-4.946506 -5.20845,-7.190057 -5.06811,-8.341707 1.88204,-15.443525 5.86612,-5.994133 6.18915,-6.177564 7.6059,-4.318877 2.50352,3.284477 1.82453,7.826596 -1.79608,12.015033 -2.79741,3.236118 -3.45452,3.573876 -4.50067,2.313348 -0.99718,-1.20153 -0.75994,-1.977843 1.27567,-4.174295 C 211.54383,74.231141 210.66899,71.959253 206.5,76 c -1.925,1.865783 -3.5,3.978017 -3.5,4.693852 0,0.715835 1.6307,3.57133 3.62377,6.345543 l 3.62377,5.044025 -1.59237,5.20829 c -0.8758,2.86456 -2.42057,8.58329 -3.43281,12.70829 l -1.84045,7.5 -7.16106,0.29321 c -7.05879,0.28901 -7.17082,0.2543 -7.84472,-2.43071 z m 14.12781,-9.37976 c 1.67757,-7.345058 1.69637,-8.120627 0.22421,-9.250004 -2.46306,-1.889549 -10.79163,-13.640413 -12.40559,-17.503175 -1.38872,-3.323666 -1.50003,-3.378931 -3.37957,-1.677969 -1.91837,1.736103 -1.91116,1.80136 0.55673,5.036927 C 188.87487,84.39144 190,86.14499 190,86.485298 c 0,0.340307 -1.36367,1.09412 -3.03038,1.675139 C 183.78648,89.270085 181,93.417643 181,97.04597 c 0,1.179909 -0.92906,3.45003 -2.06457,5.04471 -1.62849,2.287 -2.72921,2.84766 -5.21121,2.65437 -2.31583,-0.18035 -3.24225,0.217 -3.50876,1.50495 -0.29548,1.42802 0.35124,1.75 3.51505,1.75 3.12952,0 4.54148,-0.6854 7.32224,-3.55442 2.25782,-2.32948 3.34337,-4.33051 3.14997,-5.806411 C 183.7708,95.343235 187.56973,91 190.88452,91 c 1.93895,0 3.43012,0.949612 5.10346,3.25 1.30025,1.7875 2.96248,3.611314 3.69383,4.052919 1.34905,0.814585 1.17041,2.801971 -0.84917,9.447081 -0.82057,2.69996 -1.48235,3.25 -3.91019,3.25 -1.93107,0 -2.92245,0.50885 -2.92245,1.5 0,1.10273 1.14849,1.5 4.33642,1.5 l 4.33643,0 1.83109,-8.01726 z M 213,54.604171 C 213,53.721877 212.6329,53 212.18422,53 c -0.44868,0 -4.94868,4.214384 -10,9.365298 C 195.49212,69.189342 193,72.417251 193,74.261127 c 0,2.189965 1.34583,1.145453 10,-7.761127 5.5,-5.660411 10,-11.013534 10,-11.895829 z m -37.63814,5.175473 c -1.41093,-2.776175 -4.73234,-5.161225 -6.39827,-4.594498 -0.50905,0.17317 0.73909,2.701365 2.77363,5.618211 3.02217,4.332768 3.81887,4.973318 4.35319,3.5 0.35971,-0.991846 0.0319,-3.027517 -0.72855,-4.523713 z M 213,43.93085 c 0,-1.95097 -0.50987,-1.724241 -4.75,2.11225 -2.6125,2.363801 -4.90359,4.412201 -5.09131,4.551999 -0.18771,0.139799 -0.0182,1.272184 0.3767,2.516412 0.68725,2.165316 0.90536,2.063937 5.09131,-2.36643 C 211.04522,48.185338 213,45.139513 213,43.93085 z M 120.74645,98.556119 C 118.68199,96.755301 112.9745,93.616305 108.06313,91.580572 93.197722,85.418949 87.765909,80.290255 86.390324,71.117198 85.883291,67.736054 86.16955,65.840637 87.583858,63.214426 89.155784,60.295537 89.410686,57.817189 89.227052,47.238108 89.107136,40.329865 88.540404,34.151148 87.962842,33.455227 87.361255,32.730359 87.040186,28.643556 87.207992,23.84692 L 87.5,15.5 123.93315,15.237333 c 28.48225,-0.205345 36.60808,0.01289 37.23469,1 1.43427,2.259426 0.95861,15.213221 -0.63604,17.321537 C 158.38276,36.400158 158.35613,60.220742 160.5,62 c 2.23808,1.857439 1.95918,11.179617 -0.47736,15.955623 -2.4843,4.869625 -5.71447,7.163807 -19.49856,13.84855 C 134.46084,94.744611 128.375,98.203403 127,99.490379 l -2.5,2.339951 -3.75355,-3.274211 z m 9.48413,-4.90913 c 2.89818,-1.844156 9.58874,-5.419094 14.86792,-7.944306 6.22925,-2.979667 10.23719,-5.566072 11.41806,-7.368294 2.56951,-3.921581 3.1502,-11.544368 1.10216,-14.468353 C 155.32558,60.592112 155.22608,33.887184 157.5,32 158.5464,31.131564 159,28.826542 159,24.377555 L 159,18 l -34.48095,0 -34.480946,0 -0.612635,2.440932 c -0.336949,1.342512 -0.04536,4.605012 0.647982,7.25 0.69334,2.644987 1.434221,11.279529 1.646404,19.18787 0.315059,11.742681 0.08977,15.002617 -1.22886,17.781417 -1.481572,3.122181 -1.483199,3.854776 -0.01974,8.888886 1.934099,6.65307 5.314141,9.418204 18.244885,14.925726 4.83112,2.057694 10.13386,4.796509 11.78386,6.086258 1.65,1.289748 3.32876,2.366127 3.73058,2.391954 0.40182,0.02583 3.10182,-1.461898 6,-3.306054 z M 120.63483,68.75 C 118.80014,66.9625 114.26551,62.271248 110.55786,58.324996 103.07219,50.357594 103.05048,50.111904 109.3875,45.084255 112.64999,42.495877 114.14666,42 118.69652,42 c 3.69937,0 5.20483,0.350599 4.73937,1.103727 -0.37517,0.607049 0.50698,0.324585 1.96035,-0.6277 2.47658,-1.622713 4.26555,-1.646494 11.13417,-0.148009 C 138.33648,42.722037 146,49.290737 146,50.44477 146,52.147988 127.03083,72 125.40336,72 c -0.788,0 -2.93384,-1.4625 -4.76853,-3.25 z m 1.04623,-18.482578 c -3.41579,-0.354529 -3.6797,-0.574304 -2.5,-2.081897 1.15571,-1.476929 1.12192,-1.531902 -0.27307,-0.444201 -0.8756,0.682728 -1.96025,0.907728 -2.41032,0.5 -0.45008,-0.407728 -0.51566,-0.212881 -0.14575,0.432994 0.38333,0.669303 -0.0853,1.372003 -1.08968,1.633999 -0.96923,0.252824 0.93776,0.436235 4.23776,0.407579 3.91877,-0.03403 4.67532,-0.189592 2.18106,-0.448474 z m 12.50644,0.04946 c -0.72188,-0.288871 -1.58438,-0.253344 -1.91667,0.07895 -0.33229,0.332292 0.25834,0.568641 1.3125,0.52522 1.16495,-0.04798 1.4019,-0.284941 0.60417,-0.604167 z M 144.47282,43.95602 C 143.5976,42.539882 146.68482,38 148.52305,38 c 2.00372,0 1.80455,2.027549 -0.46661,4.75 -2.10574,2.524157 -2.65477,2.708929 -3.58362,1.206024 z M 103.65499,42.171259 C 101.7648,40.082627 101.48257,38 103.08971,38 c 1.14276,0 4.81972,3.958159 4.87702,5.25 0.0632,1.425528 -2.66258,0.743566 -4.31174,-1.078741 z m 12.77404,-4.597984 c -0.3546,-1.412841 -0.38532,-3.244809 -0.0683,-4.071039 C 117.35068,30.922572 119,31.858562 119,35 c 0,1.65 0,3.3375 0,3.75 0,1.997909 -2.00444,1.08048 -2.57097,-1.176725 z M 132,37.581787 C 132,34.129686 132.99468,32 134.60699,32 c 1.4426,0 1.87961,3.56837 0.78602,6.418213 C 134.43951,40.902993 132,40.301619 132,37.581787 z"
       id="path3071"
       inkscape:connector-curvature="0" />
    <path
       style="fill:#575f68"
       d="M 44.632172,117.21386 C 44.211532,116.53325 39.909145,100.8936 38.299411,94.193583 37.90796,92.564287 38.831647,90.309805 41.445687,86.514335 45.567766,80.529259 45.472181,79.689043 40.086056,74.562909 37.437824,72.042508 37,71.892873 37,73.50819 c 0,1.035305 1.212033,3.147462 2.693407,4.693684 2.161438,2.256055 2.444494,3.056894 1.433136,4.054719 C 39.027774,84.327276 34,77.926722 34,73.184223 34,66.414912 35.748325,66.313558 42.210446,72.70825 45.507469,75.97087 48,79.317661 48,80.482045 48,81.606603 46.425,84.865437 44.5,87.723898 40.74888,93.293991 40.464103,94 41.968456,94 43.576594,94 51,83.24485 51,80.914954 51,79.534852 47.54693,75.146901 41.517168,68.864747 31.866186,58.809798 30.001869,55.551956 31.709222,51.725634 c 0.62369,-1.397742 0.595838,-3.106481 -0.07981,-4.89648 -0.806326,-2.136202 -0.661293,-3.539086 0.650206,-6.289327 C 33.208031,38.592922 34.33123,37 34.775613,37 35.219997,37 37.570971,39.025 40,41.5 c 2.429029,2.475 4.714175,4.5 5.078103,4.5 0.363928,0 1.192879,-2.7 1.842114,-6 l 1.180428,-6 8.902625,0 c 9.896359,0 13.241242,1.046468 14.886458,4.657325 1.895966,4.161191 1.297051,7.309742 -2.021753,10.628547 l -3.132026,3.132025 -1.117974,-3.458949 C 64.844663,46.566367 63.806343,45.401485 62.25,45.180449 c -2.596892,-0.368817 -2.976812,-1.964315 -0.677814,-2.846523 0.868354,-0.333219 2.889841,0.37088 4.515499,1.572781 2.67891,1.980604 3.001855,2.023532 3.594982,0.477866 0.358417,-0.934021 -0.0033,-2.865149 -0.803844,-4.291396 C 67.491704,37.621853 67.026439,37.5 58.977412,37.5 l -8.445898,0 -1.928666,8.7891 c -1.701307,7.753001 -1.762107,9.136486 -0.515757,11.735945 1.761009,3.672863 26.90236,29.099509 28.063457,28.381911 C 78.0503,85.232845 76.67032,82.838138 70.078735,75.870428 63.347222,68.754805 62.163528,66.282351 66.084157,67.52671 67.665484,68.028604 68,67.638045 68,65.289894 68,61.521976 65.71511,58.433176 61.420238,56.395126 57.317744,54.448365 55,50.533088 55,45.54966 55,43.061073 55.448384,42 56.5,42 c 1.028222,0 1.5,1.030833 1.5,3.277494 0,4.278267 1.997162,6.99102 7.349056,9.982251 4.215153,2.355894 4.398452,2.374206 5.535781,0.553052 0.646953,-1.035936 2.253091,-2.374149 3.569194,-2.973806 C 77.062965,51.650281 84,52.509455 84,54.02129 c 0,0.511865 -2.7,4.705344 -6,9.318841 -3.3,4.613498 -6,8.736484 -6,9.162193 0,0.425708 1.8,2.726784 4,5.113502 2.2,2.386718 4,5.271889 4,6.411491 C 80,86.404491 77.323712,92 76.186728,92 75.767677,92 73.208649,89.75 70.5,87 65.09306,81.510516 64.510434,81.227448 63.584589,83.64016 63.18875,84.6717 63.70778,85.807447 64.983312,86.700864 67.536745,88.489359 70,93.178267 70,96.25034 70,99.329575 71.774298,101 75.045012,101 c 3.702446,0 6.168228,3.05546 5.775323,7.15646 -0.319823,3.3382 -0.329774,3.34403 -6.230469,3.64822 -5.862464,0.30223 -5.94962,0.26593 -10.805536,-4.5 -4.307827,-4.22799 -4.826403,-5.17814 -4.320534,-7.916191 0.406581,-2.200645 0.09273,-3.51165 -1.072114,-4.478385 -1.441335,-1.196202 -2.005636,-0.937267 -4.519333,2.073736 -4.006561,4.79921 -3.741608,9.33549 0.593277,10.15755 2.763427,0.52405 4.992608,4.89672 4.169084,8.1779 C 57.992323,117.87877 57.671476,118 51.539965,118 c -3.532062,0 -6.640569,-0.35376 -6.907793,-0.78614 z m 10.894901,-3.25766 c 0.985812,-1.59508 -1.458828,-3.9252 -3.857723,-3.67701 -1.79835,0.18606 -2.33952,-0.60779 -3.4388,-5.04445 l -1.304584,-5.265257 3.748779,-4.484741 c 4.202726,-5.027807 7.106945,-5.703052 10.393467,-2.41653 1.356355,1.356355 1.963578,3.065727 1.764213,4.966369 -0.235929,2.249219 0.577946,3.801349 3.634736,6.931789 3.258433,3.33694 4.606577,4.03363 7.805338,4.03363 3.437888,0 3.831149,-0.24947 3.54684,-2.25 -0.269821,-1.89859 -0.87648,-2.21898 -3.884284,-2.05136 -2.964549,0.1652 -3.848183,-0.28157 -5.249788,-2.6543 C 67.75837,100.47523 67,97.978347 67,96.495708 67,93.456287 61.254101,87 58.549109,87 c -1.355117,0 -1.193873,-0.599183 0.9,-3.344391 3.048876,-3.997283 3.127563,-4.823752 0.670933,-7.046973 -1.791464,-1.621252 -1.91223,-1.572761 -2.565511,1.030119 -0.768318,3.061223 -11.934491,18.987898 -13.732612,19.587272 -1.15218,0.38406 -0.892109,1.99092 2.26979,14.023973 0.926092,3.52437 1.220178,3.75 4.887818,3.75 2.146341,0 4.192737,-0.46971 4.547546,-1.0438 z M 54.549055,73.339426 C 53.781528,70.281358 36.1955,51.761141 34.849263,52.59316 c -2.171726,1.342201 -0.103924,4.454197 9.329112,14.040101 5.598107,5.688827 10.37715,10.144547 10.620097,9.901601 0.242946,-0.242947 0.130709,-1.680893 -0.249417,-3.195436 z M 75.333782,61.676815 C 79.554387,55.548686 79.696909,55 77.068094,55 74.464977,55 71,60.084535 71,63.90437 71,65.606967 71.150202,67 71.333782,67 c 0.183581,0 1.983581,-2.395433 4,-5.323185 z M 40.180266,46.75 C 35.060351,41.468966 34,41.01575 34,44.108427 c 0,1.236429 1.963727,3.91144 4.748147,6.467978 4.011931,3.683588 4.848083,4.093172 5.392674,2.641573 C 44.591824,52.015837 43.402636,50.073774 40.180266,46.75 z M 189.66667,117.33333 C 189.3,116.96667 189,115.19881 189,113.40476 189,109.80277 191.16459,107 193.94643,107 c 2.46139,0 3.53934,-5.39827 1.55044,-7.764403 -0.80239,-0.954578 -2.09374,-2.618611 -2.86967,-3.69785 -1.22211,-1.69984 -1.63353,-1.77738 -3.0765,-0.579822 -1.00561,0.834584 -1.54913,2.494088 -1.37149,4.187566 0.23289,2.220299 -0.73759,3.852719 -4.65489,7.829819 C 178.86941,111.70128 178.27273,112 173.48759,112 168.00602,112 166,110.80042 166,107.52251 c 0,-3.65691 2.73587,-6.37908 6.74684,-6.71304 3.87847,-0.32294 4.27877,-0.889756 5.75938,-8.155183 0.31896,-1.565143 1.91138,-4.061807 3.53871,-5.548144 2.31631,-2.11562 2.69581,-2.965405 1.74771,-3.913506 -0.9481,-0.948101 -2.37386,-0.06908 -6.56603,4.048144 L 171.87166,92.5 169.93583,90.139216 c -3.22173,-3.92897 -2.5301,-8.539192 2.02192,-13.477549 l 3.95774,-4.293648 -6.41291,-8.934009 c -5.73777,-7.993451 -6.23959,-9.065608 -4.76662,-10.18401 3.05403,-2.318866 8.20594,-1.523706 11.25151,1.736591 2.40814,2.577921 2.95872,2.783173 4.02366,1.5 C 180.6897,55.668966 181.68282,55 182.21807,55 c 0.53526,0 2.2549,-0.912659 3.82144,-2.028131 2.21399,-1.5765 2.91641,-2.950963 3.15437,-6.172279 0.44293,-5.996274 2.80612,-6.253973 2.80612,-0.306 0,5.102849 -2.42043,8.326587 -8.79195,11.7099 C 180.38273,59.703747 180,60.404351 180,64.075934 c 0,3.435921 0.24321,3.967106 1.38322,3.020987 1.07508,-0.892239 1.52943,-0.766922 2.0396,0.56255 0.47505,1.237967 -1.15025,3.531108 -5.88322,8.300619 C 173.42096,80.110535 171,83.373852 171,84.775096 171,85.998793 171.34399,87 171.76443,87 c 1.17235,0 25.86866,-25.203283 27.12739,-27.684259 1.51907,-2.99413 1.39053,-7.179518 -0.47197,-15.368336 L 196.83969,37 188.99127,37 C 180.15075,37 178,38.188046 178,43.071429 c 0,3.465367 0.35372,3.574852 3,0.928571 2.22833,-2.228329 6,-2.691697 6,-0.737128 0,0.694579 -1.0125,1.707079 -2.25,2.25 -1.39062,0.610099 -2.37086,2.037476 -2.56642,3.737128 -0.39057,3.394413 -1.55719,3.467299 -4.72903,0.295455 -3.60288,-3.602877 -3.48724,-10.587982 0.22361,-13.506938 2.36751,-1.862284 3.77993,-2.073693 12.17655,-1.82258 L 199.3531,34.5 l 1.18708,5.280297 c 0.65289,2.904163 1.41091,5.504129 1.68449,5.777702 0.27357,0.273572 2.75067,-1.528479 5.50467,-4.00456 4.67739,-4.205375 5.10885,-4.38837 6.54916,-2.777702 1.14801,1.28379 1.53929,4.012402 1.5317,10.681351 L 215.8,58.414176 205.9,68.602917 C 200.455,74.206724 196,79.554507 196,80.48688 196,82.852335 203.98559,94 205.68007,94 c 1.61363,0 0.91803,-1.554396 -3.10759,-6.94428 -4.13504,-5.536384 -3.50757,-8.704916 2.98829,-15.08988 5.32351,-5.232624 5.62218,-5.383016 7,-3.52471 2.74848,3.706951 0.84661,10.574345 -3.71793,13.424947 -3.46844,2.166076 -3.9957,0.07205 -0.8764,-3.480633 C 212.64334,73.058749 211.86867,70.745868 207,75.5 c -2.2,2.148243 -4,4.496492 -4,5.218332 0,0.72184 1.64554,3.790796 3.65675,6.819902 3.12812,4.711289 3.4945,5.829428 2.53442,7.734615 -0.61728,1.224933 -1.84006,5.152151 -2.7173,8.727151 -0.87723,3.575 -2.03506,8.1875 -2.57296,10.25 l -0.978,3.75 -6.29479,0 c -3.46213,0 -6.59479,-0.3 -6.96145,-0.66667 z m 12.99582,-11.08261 c 1.68888,-6.442567 1.88806,-8.413699 0.90943,-9 -2.36963,-1.419654 -12.44225,-15.971001 -13.27209,-19.173427 l -0.83065,-3.205612 -2.23098,2.37477 -2.23098,2.37477 2.54279,3.43939 2.5428,3.439389 -3.0175,1.241075 c -3.6243,1.490642 -5.99887,4.839872 -6.25868,8.827588 -0.10505,1.612236 -1.02657,4.153627 -2.04783,5.647537 -1.51482,2.21588 -2.38434,2.61069 -4.72061,2.14344 -2.19532,-0.43907 -3.11049,-0.11174 -3.92079,1.40232 C 168.76617,108.30543 169.54218,109 173.74509,109 178.61818,109 185,102.5335 185,97.595735 c 0,-2.46492 0.64933,-3.937138 2.22251,-5.039031 3.66546,-2.567393 6.01755,-1.788124 9.81027,3.250245 l 3.53278,4.693051 -1.43274,5.26979 c -1.09495,4.02739 -1.80996,5.15263 -3.03278,4.77283 -2.3253,-0.72223 -4.50143,0.96898 -3.75379,2.9173 0.47108,1.22761 1.6195,1.58056 4.39571,1.35092 L 200.5,114.5 l 2.16249,-8.24928 z M 213,54.541353 c 0,-2.229662 -0.27017,-2.467129 -1.84687,-1.623304 -1.01578,0.543629 -5.51578,4.864364 -10,9.601633 C 194.73244,69.302692 193,71.760652 193,74.087201 c 0,2.806411 0.5006,2.456495 10,-6.989912 7.57571,-7.533454 10,-10.577372 10,-12.555936 z m -36,9.535372 C 177,60.582373 172.64018,55 169.91111,55 168.86,55 168,55.244215 168,55.5427 168,56.307517 175.96203,67 176.53154,67 176.78919,67 177,65.684526 177,64.076725 z m 36,-19.789133 c 0,-3.172987 -0.79425,-2.905933 -5.71215,1.920616 C 204.12276,49.314514 203,51.203053 203,53.420616 l 0,3.0042 L 208,51.5 c 3.10764,-3.060909 5,-5.790607 5,-7.212408 z m -91.0623,55.11234 C 120.59696,97.954225 113.57124,93.912028 106.32498,90.417271 96.855317,85.850201 92.441721,83.134614 90.631686,80.761537 86.244258,75.009322 85.153263,64.777545 88.620515,61.899982 90.651795,60.214169 90.523139,36.275747 88.468197,33.55887 86.636331,31.136927 86.432856,17.967144 88.2,16.2 c 1.720018,-1.720018 70.87998,-1.720018 72.6,0 1.75094,1.750943 1.55088,13.953834 -0.2682,16.35887 -2.11485,2.796086 -2.16663,27.219546 -0.0636,30 1.85352,2.450583 1.94644,9.512988 0.18076,13.738872 -2.08284,4.984928 -8.03994,9.515643 -19.59123,14.90025 -5.80675,2.706802 -11.93577,6.250992 -13.62003,7.875977 l -3.06231,2.954521 -2.43769,-2.628558 z M 142.41067,87.5 c 13.03657,-6.512571 15.86345,-9.244074 17.0919,-16.515237 0.51331,-3.038234 0.20794,-4.732481 -1.30252,-7.226709 -1.70062,-2.808217 -1.96898,-5.052027 -1.94368,-16.251338 0.0241,-10.689884 0.35961,-13.626918 1.89236,-16.567562 1.39503,-2.676413 1.70703,-4.712383 1.24203,-8.104907 L 158.76977,18.30362 143.13488,17.655141 C 117.08544,16.574704 91.562589,16.837411 90.2,18.2 c -1.774717,1.774717 -1.546614,12.267446 0.3,13.8 2.156109,1.789411 2.129005,28.584285 -0.0318,31.44113 -1.761349,2.328711 -1.875308,6.048215 -0.326593,10.659647 2.103777,6.264174 5.622683,8.957709 19.871993,15.210949 4.68248,2.054883 9.85297,4.804126 11.48998,6.109429 l 2.97637,2.373277 2.96009,-2.147216 C 129.0681,94.466247 135.80488,90.8 142.41067,87.5 z M 121.57059,62.25 c -1.5629,-4.8125 -3.0538,-9.3125 -3.31311,-10 -0.35135,-0.931547 1.46021,-1.25 7.11078,-1.25 l 7.58224,0 -1.00323,2.638688 c -0.55177,1.451279 -0.81767,2.82425 -0.59087,3.051047 0.2268,0.226797 0.89098,-0.960613 1.47596,-2.638688 C 133.86258,51.095766 134.08896,51 140.04482,51 l 6.14885,0 -9.34683,9.867193 c -5.8297,6.154248 -9.6233,9.446802 -10.08153,8.75 -0.51736,-0.786721 -0.73921,-0.747436 -0.75,0.132807 -0.0425,3.470673 -1.89953,0.337153 -4.44472,-7.5 z m 8.39878,-0.75 c 0,-0.55 -0.43621,-0.325 -0.96937,0.5 -0.53316,0.825 -0.96937,1.95 -0.96937,2.5 0,0.55 0.43621,0.325 0.96937,-0.5 0.53316,-0.825 0.96937,-1.95 0.96937,-2.5 z m -13.54542,2.222656 C 113.14371,60.300195 109.14721,56.0375 107.54285,54.25 l -2.91703,-3.25 6.09774,0 6.09775,0 3.07811,9.177902 c 1.69296,5.047846 2.94547,9.310541 2.78336,9.472656 -0.16212,0.162115 -2.97859,-2.505441 -6.25883,-5.927902 z m -7.42593,-17.756176 4.49803,-3.948245 1.1759,3.240883 c 0.64674,1.782485 1.21013,3.578382 1.25197,3.990882 0.0418,0.4125 -2.51142,0.730813 -5.67392,0.707363 l -5.75,-0.04264 4.49802,-3.948245 z m 8.20482,2.777926 c -0.57313,-0.690577 -1.35201,-2.490577 -1.73085,-4 C 114.79559,42.049421 114.86612,42 119.38871,42 c 3.88378,0 5.27201,0.581974 8.85841,3.713617 3.29553,2.877663 3.63384,3.034174 1.50288,0.695281 C 128.2375,44.748814 127,43.077686 127,42.695281 127,42.312877 129.05532,42 131.56739,42 c 4.26864,0 4.52351,0.147168 3.89657,2.25 -0.65175,2.186068 -0.62831,2.194212 0.82522,0.286619 1.45625,-1.911159 1.60537,-1.864612 5.60631,1.75 L 146.00576,50 l -5.97149,0 c -5.27292,0 -5.89398,-0.204725 -5.30884,-1.75 0.63111,-1.666667 0.57859,-1.666667 -1.10281,0 -2.16825,2.14924 -14.73242,2.527551 -16.41978,0.494406 z M 124,43.125818 c 0,-0.275 -1.35,0.793382 -3,2.374182 -1.65,1.5808 -3,3.099182 -3,3.374182 0,0.275 1.35,-0.793382 3,-2.374182 1.65,-1.5808 3,-3.099182 3,-3.374182 z m 20.60699,1.047292 c -0.69391,-1.122761 2.19812,-6.078658 3.58399,-6.141685 1.84542,-0.08393 1.59791,2.102472 -0.51624,4.560325 -1.57712,1.833515 -2.58941,2.355328 -3.06775,1.58136 z m -41.2194,-2.704318 c -0.91218,-1.392165 -1.37531,-2.814406 -1.02918,-3.160536 0.86088,-0.860878 4.64159,2.679663 4.64159,4.346732 0,2.153367 -1.81467,1.557487 -3.61241,-1.186196 z m 29.17589,-2.366086 C 131.80725,37.879114 133.05092,32 134.06598,32 c 1.47145,0 1.93556,1.742281 1.30456,4.897294 -0.61353,3.067678 -1.73137,3.945922 -2.80706,2.205412 z m -16.13857,-2.545871 c -0.68237,-2.718758 0.21102,-4.899876 1.64419,-4.01413 C 119.3118,33.310737 119.26771,39 118.01905,39 c -0.53952,0 -1.25688,-1.099424 -1.59414,-2.443165 z"
       id="path3069"
       inkscape:connector-curvature="0" />
    <path
       style="fill:#c0140b"
       d="M 41.65404,106.25 C 40.129602,100.3375 38.651746,94.594202 38.369917,93.487115 38.03414,92.168109 39.088576,89.861939 41.42875,86.797106 43.392938,84.224688 45,81.509313 45,80.762939 45,80.016565 43.2,77.648243 41,75.5 c -3.521145,-3.438306 -4,-3.651358 -4,-1.779673 0,1.169422 1.112452,3.448297 2.472116,5.064165 2.677696,3.182262 2.383657,4.743872 -0.593248,3.15068 -4.074255,-2.180475 -6.13951,-9.828882 -3.594031,-13.310032 1.170682,-1.601003 1.792613,-1.224768 7,4.234634 C 45.428176,76.155237 48,79.438558 48,80.156042 c 0,0.717484 -1.626399,3.939491 -3.614221,7.160016 -2.334553,3.782276 -3.270834,6.198887 -2.644379,6.825342 0.626455,0.626455 2.648687,-1.487236 5.71148,-5.96979 5.774296,-8.450976 5.905402,-8.041875 -6.66289,-20.790817 C 32.856975,59.333754 31.8,57.842502 31.8,54.697105 c 0,-1.960465 0.273219,-4.006559 0.607154,-4.546877 0.333935,-0.540318 0.156889,-2.166682 -0.393435,-3.614144 -0.737676,-1.940234 -0.611319,-3.5634 0.480887,-6.177417 l 1.481475,-3.54567 3.858155,3.055716 c 2.121986,1.680643 4.432468,3.747719 5.134405,4.593501 2.144105,2.583489 2.882703,1.781818 4.111142,-4.462214 l 1.180427,-6 8.619895,0.01474 c 9.452263,0.01617 12.790877,1.144892 14.99343,5.069015 1.845185,3.287426 0.865119,7.275675 -2.642268,10.752365 L 66.543868,52.5 66.019383,49.5 C 65.699748,47.671722 64.617103,46.114453 63.247449,45.512872 62.011352,44.969951 61,44.182451 61,43.762872 61,42.385295 65.726908,42.966018 67,44.5 c 1.901825,2.291558 3,1.799205 3,-1.345012 C 70,38.371016 67.39952,37 58.325506,37 l -8.017014,0 -1.654246,7.528421 c -2.07462,9.441531 -2.07759,12.387788 -0.01562,15.499073 C 51.376,64.157889 75.306321,87.928717 76.182139,87.387432 78.527261,85.938067 76.570471,82.016512 70.5,76 66.925,72.456777 64,68.982277 64,68.278888 64,66.671621 65.236776,66.636776 66.8,68.2 c 0.933333,0.933333 1.2,0.395953 1.2,-2.418213 0,-5.376011 -0.735309,-6.5129 -6.101287,-9.433431 -3.86709,-2.104734 -5.100372,-3.414621 -5.889462,-6.255285 C 54.612454,45.064712 54.755306,43 56.5,43 c 1.031115,0 1.5,1.034319 1.5,3.30887 0,4.12576 1.2861,5.735221 7.10428,8.890491 4.449781,2.413171 4.643777,2.43371 5.781382,0.612115 0.647407,-1.036662 2.343509,-2.328308 3.769116,-2.870322 C 77.231425,51.961514 84,52.633637 84,53.869138 c 0,0.355607 -2.884047,4.693026 -6.408994,9.63871 L 71.182012,72.5 l 3.801629,4 c 2.090896,2.2 4.094784,4.979468 4.453084,6.176596 C 80.11729,84.950453 77.717924,92 76.263435,92 75.802195,92 73.208649,89.75 70.5,87 c -5.292191,-5.372983 -6.241965,-5.836005 -7.144836,-3.48316 -0.352716,0.919164 0.419179,2.304418 1.958994,3.515637 2.384928,1.875984 3.67152,4.697518 5.115082,11.217523 0.515152,2.32674 1.120774,2.75 3.934824,2.75 C 78.246135,101 81,103.54338 81,107.12874 81,110.81668 79.16276,112 73.436842,112 c -4.903086,0 -5.397903,-0.25096 -9.823499,-4.98228 -3.817306,-4.08101 -4.545442,-5.44008 -4.025175,-7.512987 0.656207,-2.614536 -0.925562,-5.535278 -2.960613,-5.466782 -1.854634,0.06242 -6.174049,7.287289 -5.816278,9.728599 0.215609,1.47123 1.522627,2.76395 3.724851,3.6841 2.194468,0.91691 3.619937,2.32298 4.036128,3.98122 C 59.762496,116.17416 58.675642,117 51.244259,117 l -6.818511,0 -2.771708,-10.75 z m 14.023062,7.14908 c 0.72638,-1.89292 -1.465318,-3.59527 -3.884154,-3.01693 -1.20934,0.28915 -1.98495,-0.50886 -2.660188,-2.737 C 47.380812,101.86409 46.954167,99 47.844947,99 48.330625,99 49.975399,97.2 51.5,95 c 1.595488,-2.30229 3.582427,-4 4.681455,-4 2.912721,0 7.011914,4.616629 6.637324,7.475144 -0.227365,1.735036 0.81096,3.585446 3.634408,6.476916 C 69.72549,108.3032 71.071479,109 74.272499,109 c 3.437826,0 3.831167,-0.24951 3.547052,-2.25 -0.256766,-1.80793 -0.977604,-2.26097 -3.668802,-2.30585 -3.789132,-0.0632 -7.09153,-3.419 -7.128513,-7.24381 -0.03427,-3.54412 -2.553331,-7.620467 -5.686922,-9.20258 -1.559423,-0.787334 -2.993258,-1.529365 -3.186301,-1.648959 -0.193043,-0.119593 0.815717,-1.74707 2.241688,-3.616616 L 62.983377,79.333012 60.667502,77.15736 C 58.265603,74.900893 57,75.172089 57,77.943237 57,79.776129 46.806559,94.85421 44.289301,96.744832 c -1.540506,1.157018 -1.529942,1.791902 0.149756,8.999998 0.99395,4.26534 2.003335,8.09267 2.243079,8.50517 0.880478,1.51494 8.358565,0.80751 8.994966,-0.85092 z M 55,74.359923 c 0,-1.993192 -2.3736,-5.056002 -9.687185,-12.5 C 39.984864,56.436966 35.259864,52 34.812815,52 34.365767,52 34,52.989936 34,54.199857 c 0,1.4211 3.451532,5.797861 9.75,12.363616 5.3625,5.590068 10.0875,10.225132 10.5,10.300143 0.4125,0.07501 0.75,-1.05165 0.75,-2.503693 z M 75.20805,62.25 C 80.425571,54.951503 80.409504,55 77.609908,55 74.066472,55 69.675643,60.859477 70.564687,64.401712 70.923358,65.83077 71.35082,67 71.514603,67 c 0.163782,0 1.825834,-2.1375 3.693447,-4.75 z M 44.678812,53.249294 C 44.812233,51.197895 43.690704,49.305638 40.260645,45.794916 35.509427,40.931967 34,40.565439 34,44.274668 c 0,1.856344 8.386832,11.726696 9.962408,11.724626 0.295676,-3.89e-4 0.618057,-1.237889 0.716404,-2.75 z M 189.18963,113.25 c 0.2569,-3.10398 0.86281,-4.00841 3.51718,-5.25 4.5896,-2.14681 5.21923,-5.91934 1.74757,-10.470924 C 192.97391,95.588084 191.16339,94 190.431,94 c -2.0034,0 -3.34508,3.095796 -2.40886,5.558224 0.68352,1.797796 -0.0669,3.041906 -4.43978,7.360436 -5.18047,5.11612 -5.34647,5.19217 -10.67234,4.88915 L 167.5,111.5 167.17711,107.53988 C 166.80717,103.00281 168.63817,101 173.15595,101 176.26389,101 178,98.658121 178,94.465741 c 0,-1.721385 1.26014,-3.925882 3.55714,-6.222884 3.22069,-3.220686 3.40979,-3.704501 1.99922,-5.115067 -1.41057,-1.410567 -2.06645,-1.055714 -6.93426,3.751626 l -5.37633,5.309551 -1.62289,-2.31699 c -2.85642,-4.078115 -2.08169,-8.305453 2.38207,-12.997841 4.58983,-4.824917 4.92587,-3.516264 -4.12869,-16.078672 -2.65782,-3.687495 -4.50477,-6.897076 -4.10433,-7.132403 0.40044,-0.235327 2.16418,-0.735743 3.91942,-1.112037 3.49394,-0.74904 6.75836,0.547835 9.30959,3.698467 1.44053,1.778982 1.70403,1.81092 2.91385,0.353179 C 180.64635,55.721202 181.8041,55 182.48759,55 c 2.80078,0 6.52188,-4.207041 7.13998,-8.07239 0.8246,-5.15676 2.37243,-5.045078 2.37243,0.17118 0,3.2958 -0.60845,4.667164 -3.10576,7 C 187.18608,55.694456 185.23082,57 184.54923,57 c -2.25848,0 -4.71064,3.784126 -5.2958,8.172384 -0.53219,3.991007 -0.44452,4.218129 1.12713,2.919998 1.0356,-0.855376 2.06463,-1.047188 2.62291,-0.488911 0.55828,0.558276 -1.54968,3.49876 -5.373,7.495039 -6.88598,7.197476 -7.88772,8.874698 -6.56522,10.992174 1.24581,1.994679 27.6113,-24.28445 28.84974,-28.755243 0.58127,-2.098369 0.39798,-5.46753 -0.54401,-10 C 197.04262,36.132411 197.95889,37 188.45567,37 c -7.82192,0 -8.52179,0.171274 -10.01555,2.451037 -0.94546,1.442967 -1.33851,3.29374 -0.95566,4.5 0.76564,2.412308 2.06686,2.660582 2.87717,0.548963 0.33648,-0.876863 1.83491,-1.5 3.60699,-1.5 3.50807,0 4.11956,1.706352 0.78138,2.180449 -1.71889,0.244121 -2.3717,1.145726 -2.76558,3.819551 l -0.51558,3.5 -3.23442,-3.173077 C 175.03259,46.185816 174.12539,42.442765 175.62118,38.544802 176.80591,35.457449 181.55529,34 190.43129,34 c 8.48931,0 8.5336,0.01331 9.14994,2.75 0.34063,1.5125 1.05857,4.500694 1.59541,6.64043 l 0.97608,3.890431 5.32378,-5.257652 5.32378,-5.257651 1.49325,2.367221 c 1.88567,2.989313 1.98691,16.336015 0.1507,19.867221 -0.71499,1.375 -5.15744,6.315065 -9.87211,10.977922 C 199.29516,75.196893 196,79.252329 196,80.527839 c 0,3.05472 8.91629,14.95587 10.22465,13.647508 0.72388,-0.723874 -0.0687,-2.557204 -2.59087,-5.993103 -5.04499,-6.872655 -4.79804,-9.146583 1.73123,-15.941022 l 5.36501,-5.582896 1.73878,2.653717 c 1.44207,2.20088 1.547,3.203889 0.61486,5.877819 C 211.93674,78.479916 208.31496,83 206.82569,83 c -1.54426,0 -0.83243,-2.20328 1.67431,-5.182369 4.36899,-5.192255 2.87625,-8.031325 -1.61292,-3.067631 -5.24304,5.797249 -5.21369,5.550768 -1.33261,11.19286 1.96957,2.863253 3.57992,5.959941 3.57856,6.881527 -0.001,0.921587 -0.90615,4.825613 -2.01065,8.675613 -1.10449,3.85 -2.50121,8.9125 -3.10382,11.25 l -1.09565,4.25 -7.02182,0 -7.02182,0 0.31036,-3.75 z m 13.69789,-6.75489 2.13309,-8.504891 -2.91285,-2.74511 C 198.10062,91.468718 190,79.184155 190,76.883732 c 0,-2.318404 -0.79856,-2.376005 -3.17126,-0.228744 -2.39622,2.168551 -2.32015,2.834191 0.78995,6.911734 C 189.6989,86.294021 189.90777,87 188.63447,87 c -3.04344,0 -7.66911,5.276773 -8.3278,9.5 -0.97216,6.23315 -2.8853,8.53427 -6.49509,7.81232 -2.02967,-0.40594 -3.30255,-0.14713 -3.89748,0.79244 -1.8252,2.88248 -0.96883,3.89524 3.29374,3.89524 3.50349,0 4.8426,-0.61983 8,-3.70295 C 184.08187,102.49063 185,100.79585 185,98.297052 185,94.615042 187.91279,91 190.87954,91 c 1.03374,0 3.54056,2.027056 5.57069,4.504569 l 3.69116,4.504571 -1.19354,5.33327 c -1.04886,4.68683 -1.45874,5.28258 -3.38151,4.91502 -2.38569,-0.45605 -5.12915,2.02291 -4.09341,3.69877 0.35481,0.57409 2.58829,1.0438 4.9633,1.0438 l 4.3182,0 2.13309,-8.50489 z M 213,54.768762 C 213,53.245943 212.65312,52 212.22915,52 c -1.56148,0 -18.16043,17.593483 -19.18448,20.333916 -2.20737,5.907109 0.52094,4.565075 10.08031,-4.958426 C 210.87848,59.651079 213,56.942692 213,54.768762 z m -38.12996,3.269323 C 173.49461,56.177724 171.72765,55 170.31194,55 169.04037,55 168,55.246987 168,55.54886 c 0,0.301872 1.9125,3.268524 4.25,6.592558 l 4.25,6.043699 0.30809,-3.554474 c 0.21437,-2.473068 -0.37527,-4.478774 -1.93805,-6.592558 z M 213,43.575184 l 0,-3 L 208,45.5 c -3.79449,3.737429 -5,5.648125 -5,7.924816 l 0,3 L 208,51.5 c 3.79449,-3.737429 5,-5.648125 5,-7.924816 z M 120,97.461528 C 117.525,95.692662 111.68404,92.604692 107.02008,90.599371 95.811178,85.779976 91.494796,82.65356 89.035167,77.572646 86.662857,72.672108 86.417512,65.354214 88.531803,62.55887 90.621479,59.796072 90.633846,36.349955 88.5472,33.37085 87.596825,32.014 87.102269,28.806801 87.117155,24.096996 87.138476,17.350702 87.29704,16.837564 89.635054,15.948652 91.030632,15.418055 107.09564,15 126.08985,15 l 33.95965,0 0.97525,2.5651 c 1.45761,3.833791 1.16604,11.545409 -0.56179,14.858719 -2.20317,4.224853 -2.20412,28.099729 -0.001,30.533923 3.35094,3.702749 0.7295,14.849511 -4.65759,19.80475 -1.35282,1.244371 -7.59968,4.774686 -13.88192,7.845145 C 135.64001,93.678096 129.15,97.199945 127.5,98.433968 l -3,2.243682 -4.5,-3.216122 z m 24.02746,-10.702813 c 10.9048,-5.139583 13.35499,-7.41304 15.12445,-14.033528 1.1386,-4.260087 1.07455,-5.149195 -0.59412,-8.247734 -2.69623,-5.006594 -2.76335,-28.988589 -0.0925,-33.064757 1.36397,-2.081688 1.64032,-3.873534 1.1873,-7.698553 C 159.32781,20.97219 158.786,18.4523 158.44853,18.114387 158.11107,17.776474 142.45959,17.5 123.66748,17.5 L 89.5,17.5 89.196308,23.376966 c -0.196947,3.811259 0.242418,7.027808 1.25,9.151129 2.158058,4.54777 2.174711,28.066748 0.02189,30.913035 -1.723993,2.279322 -1.904623,7.271086 -0.406863,11.24377 1.91893,5.089802 6.964324,9.109256 16.846315,13.420758 5.27579,2.30182 11.37149,5.405491 13.54599,6.897046 l 3.95364,2.711919 5.07382,-3.245684 c 2.7906,-1.785127 9.33647,-5.254727 14.54636,-7.710224 z M 121.57059,62.25 c -1.5629,-4.8125 -3.0538,-9.3125 -3.31311,-10 -0.35135,-0.931547 1.46021,-1.25 7.11078,-1.25 l 7.58224,0 -1.00323,2.638688 c -0.55177,1.451279 -0.81767,2.82425 -0.59087,3.051047 0.2268,0.226797 0.89098,-0.960613 1.47596,-2.638688 C 133.86258,51.095766 134.08896,51 140.04482,51 l 6.14885,0 -9.34683,9.867193 c -5.8297,6.154248 -9.6233,9.446802 -10.08153,8.75 -0.51736,-0.786721 -0.73921,-0.747436 -0.75,0.132807 -0.0425,3.470673 -1.89953,0.337153 -4.44472,-7.5 z m 8.39878,-0.75 c 0,-0.55 -0.43621,-0.325 -0.96937,0.5 -0.53316,0.825 -0.96937,1.95 -0.96937,2.5 0,0.55 0.43621,0.325 0.96937,-0.5 0.53316,-0.825 0.96937,-1.95 0.96937,-2.5 z m -13.54542,2.222656 C 113.14371,60.300195 109.14721,56.0375 107.54285,54.25 l -2.91703,-3.25 6.09774,0 6.09775,0 3.07811,9.177902 c 1.69296,5.047846 2.94547,9.310541 2.78336,9.472656 -0.16212,0.162115 -2.97859,-2.505441 -6.25883,-5.927902 z m -7.42593,-17.756176 4.49803,-3.948245 1.1759,3.240883 c 0.64674,1.782485 1.21013,3.578382 1.25197,3.990882 0.0418,0.4125 -2.51142,0.730813 -5.67392,0.707363 l -5.75,-0.04264 4.49802,-3.948245 z m 8.20482,2.777926 c -0.57313,-0.690577 -1.35201,-2.490577 -1.73085,-4 C 114.79559,42.049421 114.86612,42 119.38871,42 c 3.88378,0 5.27201,0.581974 8.85841,3.713617 3.29553,2.877663 3.63384,3.034174 1.50288,0.695281 C 128.2375,44.748814 127,43.077686 127,42.695281 127,42.312877 129.05532,42 131.56739,42 c 4.26864,0 4.52351,0.147168 3.89657,2.25 -0.65175,2.186068 -0.62831,2.194212 0.82522,0.286619 1.45625,-1.911159 1.60537,-1.864612 5.60631,1.75 L 146.00576,50 l -5.97149,0 c -5.27292,0 -5.89398,-0.204725 -5.30884,-1.75 0.63111,-1.666667 0.57859,-1.666667 -1.10281,0 -2.16825,2.14924 -14.73242,2.527551 -16.41978,0.494406 z M 124,43.125818 c 0,-0.275 -1.35,0.793382 -3,2.374182 -1.65,1.5808 -3,3.099182 -3,3.374182 0,0.275 1.35,-0.793382 3,-2.374182 1.65,-1.5808 3,-3.099182 3,-3.374182 z m -20.46489,-1.712582 c -0.9322,-1.42272 -1.39522,-2.88522 -1.02893,-3.25 C 103.21723,37.455117 107,41.61982 107,43.110784 c 0,1.732476 -1.79305,0.854013 -3.46489,-1.697548 z M 144.59309,42.75 c 1.50704,-2.64906 3.71093,-4.680137 4.52944,-4.174271 C 150.33617,39.325796 147.06459,44 145.32597,44 c -0.8678,0 -1.16024,-0.498789 -0.73288,-1.25 z m -27.8424,-6.273867 c -0.47948,-2.508211 0.38677,-4.005343 1.60983,-2.78228 C 119.32657,34.659906 119.12704,39 118.11658,39 c -0.48589,0 -1.10054,-1.13574 -1.36589,-2.523867 z M 133,36 c 0,-1.65 0.45,-3 1,-3 0.55,0 1,1.35 1,3 0,1.65 -0.45,3 -1,3 -0.55,0 -1,-1.35 -1,-3 z"
       id="path3067"
       inkscape:connector-curvature="0" />
    <path
       style="fill:#29435b"
       d="M 41.65404,106.25 C 40.129602,100.3375 38.651746,94.594202 38.369917,93.487115 38.03414,92.168109 39.088576,89.861939 41.42875,86.797106 43.392938,84.224688 45,81.509313 45,80.762939 45,80.016565 43.2,77.648243 41,75.5 c -3.521145,-3.438306 -4,-3.651358 -4,-1.779673 0,1.169422 1.112452,3.448297 2.472116,5.064165 2.677696,3.182262 2.383657,4.743872 -0.593248,3.15068 -4.074255,-2.180475 -6.13951,-9.828882 -3.594031,-13.310032 1.170682,-1.601003 1.792613,-1.224768 7,4.234634 C 45.428176,76.155237 48,79.438558 48,80.156042 c 0,0.717484 -1.626399,3.939491 -3.614221,7.160016 -2.334553,3.782276 -3.270834,6.198887 -2.644379,6.825342 0.626455,0.626455 2.648687,-1.487236 5.71148,-5.96979 5.774296,-8.450976 5.905402,-8.041875 -6.66289,-20.790817 C 32.856975,59.333754 31.8,57.842502 31.8,54.697105 c 0,-1.960465 0.273219,-4.006559 0.607154,-4.546877 0.333935,-0.540318 0.156889,-2.166682 -0.393435,-3.614144 -0.737676,-1.940234 -0.611319,-3.5634 0.480887,-6.177417 l 1.481475,-3.54567 3.858155,3.055716 c 2.121986,1.680643 4.432468,3.747719 5.134405,4.593501 2.144105,2.583489 2.882703,1.781818 4.111142,-4.462214 l 1.180427,-6 8.619895,0.01474 c 9.452263,0.01617 12.790877,1.144892 14.99343,5.069015 1.845185,3.287426 0.865119,7.275675 -2.642268,10.752365 L 66.543868,52.5 66.019383,49.5 C 65.699748,47.671722 64.617103,46.114453 63.247449,45.512872 62.011352,44.969951 61,44.182451 61,43.762872 61,42.385295 65.726908,42.966018 67,44.5 c 1.901825,2.291558 3,1.799205 3,-1.345012 C 70,38.371016 67.39952,37 58.325506,37 l -8.017014,0 -1.654246,7.528421 c -2.07462,9.441531 -2.07759,12.387788 -0.01562,15.499073 C 51.376,64.157889 75.306321,87.928717 76.182139,87.387432 78.527261,85.938067 76.570471,82.016512 70.5,76 66.925,72.456777 64,68.982277 64,68.278888 64,66.671621 65.236776,66.636776 66.8,68.2 c 0.933333,0.933333 1.2,0.395953 1.2,-2.418213 0,-5.376011 -0.735309,-6.5129 -6.101287,-9.433431 -3.86709,-2.104734 -5.100372,-3.414621 -5.889462,-6.255285 C 54.612454,45.064712 54.755306,43 56.5,43 c 1.031115,0 1.5,1.034319 1.5,3.30887 0,4.12576 1.2861,5.735221 7.10428,8.890491 4.449781,2.413171 4.643777,2.43371 5.781382,0.612115 0.647407,-1.036662 2.343509,-2.328308 3.769116,-2.870322 C 77.231425,51.961514 84,52.633637 84,53.869138 c 0,0.355607 -2.884047,4.693026 -6.408994,9.63871 L 71.182012,72.5 l 3.801629,4 c 2.090896,2.2 4.094784,4.979468 4.453084,6.176596 C 80.11729,84.950453 77.717924,92 76.263435,92 75.802195,92 73.208649,89.75 70.5,87 c -5.292191,-5.372983 -6.241965,-5.836005 -7.144836,-3.48316 -0.352716,0.919164 0.419179,2.304418 1.958994,3.515637 2.384928,1.875984 3.67152,4.697518 5.115082,11.217523 0.515152,2.32674 1.120774,2.75 3.934824,2.75 C 78.246135,101 81,103.54338 81,107.12874 81,110.81668 79.16276,112 73.436842,112 c -4.903086,0 -5.397903,-0.25096 -9.823499,-4.98228 -3.817306,-4.08101 -4.545442,-5.44008 -4.025175,-7.512987 0.656207,-2.614536 -0.925562,-5.535278 -2.960613,-5.466782 -1.854634,0.06242 -6.174049,7.287289 -5.816278,9.728599 0.215609,1.47123 1.522627,2.76395 3.724851,3.6841 2.194468,0.91691 3.619937,2.32298 4.036128,3.98122 C 59.762496,116.17416 58.675642,117 51.244259,117 l -6.818511,0 -2.771708,-10.75 z m 14.023062,7.14908 c 0.72638,-1.89292 -1.465318,-3.59527 -3.884154,-3.01693 -1.20934,0.28915 -1.98495,-0.50886 -2.660188,-2.737 C 47.380812,101.86409 46.954167,99 47.844947,99 48.330625,99 49.975399,97.2 51.5,95 c 1.595488,-2.30229 3.582427,-4 4.681455,-4 2.912721,0 7.011914,4.616629 6.637324,7.475144 -0.227365,1.735036 0.81096,3.585446 3.634408,6.476916 C 69.72549,108.3032 71.071479,109 74.272499,109 c 3.437826,0 3.831167,-0.24951 3.547052,-2.25 -0.256766,-1.80793 -0.977604,-2.26097 -3.668802,-2.30585 -3.789132,-0.0632 -7.09153,-3.419 -7.128513,-7.24381 -0.03427,-3.54412 -2.553331,-7.620467 -5.686922,-9.20258 -1.559423,-0.787334 -2.993258,-1.529365 -3.186301,-1.648959 -0.193043,-0.119593 0.815717,-1.74707 2.241688,-3.616616 L 62.983377,79.333012 60.667502,77.15736 C 58.265603,74.900893 57,75.172089 57,77.943237 57,79.776129 46.806559,94.85421 44.289301,96.744832 c -1.540506,1.157018 -1.529942,1.791902 0.149756,8.999998 0.99395,4.26534 2.003335,8.09267 2.243079,8.50517 0.880478,1.51494 8.358565,0.80751 8.994966,-0.85092 z M 55,74.359923 c 0,-1.993192 -2.3736,-5.056002 -9.687185,-12.5 C 39.984864,56.436966 35.259864,52 34.812815,52 34.365767,52 34,52.989936 34,54.199857 c 0,1.4211 3.451532,5.797861 9.75,12.363616 5.3625,5.590068 10.0875,10.225132 10.5,10.300143 0.4125,0.07501 0.75,-1.05165 0.75,-2.503693 z M 75.20805,62.25 C 80.425571,54.951503 80.409504,55 77.609908,55 74.066472,55 69.675643,60.859477 70.564687,64.401712 70.923358,65.83077 71.35082,67 71.514603,67 c 0.163782,0 1.825834,-2.1375 3.693447,-4.75 z M 44.678812,53.249294 C 44.812233,51.197895 43.690704,49.305638 40.260645,45.794916 35.509427,40.931967 34,40.565439 34,44.274668 c 0,1.856344 8.386832,11.726696 9.962408,11.724626 0.295676,-3.89e-4 0.618057,-1.237889 0.716404,-2.75 z M 189.18963,113.25 c 0.2569,-3.10398 0.86281,-4.00841 3.51718,-5.25 4.5896,-2.14681 5.21923,-5.91934 1.74757,-10.470924 C 192.97391,95.588084 191.16339,94 190.431,94 c -2.0034,0 -3.34508,3.095796 -2.40886,5.558224 0.68352,1.797796 -0.0669,3.041906 -4.43978,7.360436 -5.18047,5.11612 -5.34647,5.19217 -10.67234,4.88915 L 167.5,111.5 167.17711,107.53988 C 166.80717,103.00281 168.63817,101 173.15595,101 176.26389,101 178,98.658121 178,94.465741 c 0,-1.721385 1.26014,-3.925882 3.55714,-6.222884 3.22069,-3.220686 3.40979,-3.704501 1.99922,-5.115067 -1.41057,-1.410567 -2.06645,-1.055714 -6.93426,3.751626 l -5.37633,5.309551 -1.62289,-2.31699 c -2.85642,-4.078115 -2.08169,-8.305453 2.38207,-12.997841 4.58983,-4.824917 4.92587,-3.516264 -4.12869,-16.078672 -2.65782,-3.687495 -4.50477,-6.897076 -4.10433,-7.132403 0.40044,-0.235327 2.16418,-0.735743 3.91942,-1.112037 3.49394,-0.74904 6.75836,0.547835 9.30959,3.698467 1.44053,1.778982 1.70403,1.81092 2.91385,0.353179 C 180.64635,55.721202 181.8041,55 182.48759,55 c 2.80078,0 6.52188,-4.207041 7.13998,-8.07239 0.8246,-5.15676 2.37243,-5.045078 2.37243,0.17118 0,3.2958 -0.60845,4.667164 -3.10576,7 C 187.18608,55.694456 185.23082,57 184.54923,57 c -2.25848,0 -4.71064,3.784126 -5.2958,8.172384 -0.53219,3.991007 -0.44452,4.218129 1.12713,2.919998 1.0356,-0.855376 2.06463,-1.047188 2.62291,-0.488911 0.55828,0.558276 -1.54968,3.49876 -5.373,7.495039 -6.88598,7.197476 -7.88772,8.874698 -6.56522,10.992174 1.24581,1.994679 27.6113,-24.28445 28.84974,-28.755243 0.58127,-2.098369 0.39798,-5.46753 -0.54401,-10 C 197.04262,36.132411 197.95889,37 188.45567,37 c -7.82192,0 -8.52179,0.171274 -10.01555,2.451037 -0.94546,1.442967 -1.33851,3.29374 -0.95566,4.5 0.76564,2.412308 2.06686,2.660582 2.87717,0.548963 0.33648,-0.876863 1.83491,-1.5 3.60699,-1.5 3.50807,0 4.11956,1.706352 0.78138,2.180449 -1.71889,0.244121 -2.3717,1.145726 -2.76558,3.819551 l -0.51558,3.5 -3.23442,-3.173077 C 175.03259,46.185816 174.12539,42.442765 175.62118,38.544802 176.80591,35.457449 181.55529,34 190.43129,34 c 8.48931,0 8.5336,0.01331 9.14994,2.75 0.34063,1.5125 1.05857,4.500694 1.59541,6.64043 l 0.97608,3.890431 5.32378,-5.257652 5.32378,-5.257651 1.49325,2.367221 c 1.88567,2.989313 1.98691,16.336015 0.1507,19.867221 -0.71499,1.375 -5.15744,6.315065 -9.87211,10.977922 C 199.29516,75.196893 196,79.252329 196,80.527839 c 0,3.05472 8.91629,14.95587 10.22465,13.647508 0.72388,-0.723874 -0.0687,-2.557204 -2.59087,-5.993103 -5.04499,-6.872655 -4.79804,-9.146583 1.73123,-15.941022 l 5.36501,-5.582896 1.73878,2.653717 c 1.44207,2.20088 1.547,3.203889 0.61486,5.877819 C 211.93674,78.479916 208.31496,83 206.82569,83 c -1.54426,0 -0.83243,-2.20328 1.67431,-5.182369 4.36899,-5.192255 2.87625,-8.031325 -1.61292,-3.067631 -5.24304,5.797249 -5.21369,5.550768 -1.33261,11.19286 1.96957,2.863253 3.57992,5.959941 3.57856,6.881527 -0.001,0.921587 -0.90615,4.825613 -2.01065,8.675613 -1.10449,3.85 -2.50121,8.9125 -3.10382,11.25 l -1.09565,4.25 -7.02182,0 -7.02182,0 0.31036,-3.75 z m 13.69789,-6.75489 2.13309,-8.504891 -2.91285,-2.74511 C 198.10062,91.468718 190,79.184155 190,76.883732 c 0,-2.318404 -0.79856,-2.376005 -3.17126,-0.228744 -2.39622,2.168551 -2.32015,2.834191 0.78995,6.911734 C 189.6989,86.294021 189.90777,87 188.63447,87 c -3.04344,0 -7.66911,5.276773 -8.3278,9.5 -0.97216,6.23315 -2.8853,8.53427 -6.49509,7.81232 -2.02967,-0.40594 -3.30255,-0.14713 -3.89748,0.79244 -1.8252,2.88248 -0.96883,3.89524 3.29374,3.89524 3.50349,0 4.8426,-0.61983 8,-3.70295 C 184.08187,102.49063 185,100.79585 185,98.297052 185,94.615042 187.91279,91 190.87954,91 c 1.03374,0 3.54056,2.027056 5.57069,4.504569 l 3.69116,4.504571 -1.19354,5.33327 c -1.04886,4.68683 -1.45874,5.28258 -3.38151,4.91502 -2.38569,-0.45605 -5.12915,2.02291 -4.09341,3.69877 0.35481,0.57409 2.58829,1.0438 4.9633,1.0438 l 4.3182,0 2.13309,-8.50489 z M 213,54.768762 C 213,53.245943 212.65312,52 212.22915,52 c -1.56148,0 -18.16043,17.593483 -19.18448,20.333916 -2.20737,5.907109 0.52094,4.565075 10.08031,-4.958426 C 210.87848,59.651079 213,56.942692 213,54.768762 z m -38.12996,3.269323 C 173.49461,56.177724 171.72765,55 170.31194,55 169.04037,55 168,55.246987 168,55.54886 c 0,0.301872 1.9125,3.268524 4.25,6.592558 l 4.25,6.043699 0.30809,-3.554474 c 0.21437,-2.473068 -0.37527,-4.478774 -1.93805,-6.592558 z M 213,43.575184 l 0,-3 L 208,45.5 c -3.79449,3.737429 -5,5.648125 -5,7.924816 l 0,3 L 208,51.5 c 3.79449,-3.737429 5,-5.648125 5,-7.924816 z M 120,97.461528 C 117.525,95.692662 111.68404,92.604692 107.02008,90.599371 95.811178,85.779976 91.494796,82.65356 89.035167,77.572646 86.662857,72.672108 86.417512,65.354214 88.531803,62.55887 90.621479,59.796072 90.633846,36.349955 88.5472,33.37085 87.596825,32.014 87.102269,28.806801 87.117155,24.096996 87.138476,17.350702 87.29704,16.837564 89.635054,15.948652 91.030632,15.418055 107.09564,15 126.08985,15 l 33.95965,0 0.97525,2.5651 c 1.45761,3.833791 1.16604,11.545409 -0.56179,14.858719 -2.20317,4.224853 -2.20412,28.099729 -0.001,30.533923 3.35094,3.702749 0.7295,14.849511 -4.65759,19.80475 -1.35282,1.244371 -7.59968,4.774686 -13.88192,7.845145 C 135.64001,93.678096 129.15,97.199945 127.5,98.433968 l -3,2.243682 -4.5,-3.216122 z m 24.02746,-10.702813 c 10.9048,-5.139583 13.35499,-7.41304 15.12445,-14.033528 1.1386,-4.260087 1.07455,-5.149195 -0.59412,-8.247734 -2.69623,-5.006594 -2.76335,-28.988589 -0.0925,-33.064757 1.36397,-2.081688 1.64032,-3.873534 1.1873,-7.698553 C 159.32781,20.97219 158.786,18.4523 158.44853,18.114387 158.11107,17.776474 142.45959,17.5 123.66748,17.5 L 89.5,17.5 89.196308,23.376966 c -0.196947,3.811259 0.242418,7.027808 1.25,9.151129 2.158058,4.54777 2.174711,28.066748 0.02189,30.913035 -1.723993,2.279322 -1.904623,7.271086 -0.406863,11.24377 1.91893,5.089802 6.964324,9.109256 16.846315,13.420758 5.27579,2.30182 11.37149,5.405491 13.54599,6.897046 l 3.95364,2.711919 5.07382,-3.245684 c 2.7906,-1.785127 9.33647,-5.254727 14.54636,-7.710224 z M 103.53511,41.413236 c -0.9322,-1.42272 -1.39522,-2.88522 -1.02893,-3.25 C 103.21723,37.455117 107,41.61982 107,43.110784 c 0,1.732476 -1.79305,0.854013 -3.46489,-1.697548 z M 144.59309,42.75 c 1.50704,-2.64906 3.71093,-4.680137 4.52944,-4.174271 C 150.33617,39.325796 147.06459,44 145.32597,44 c -0.8678,0 -1.16024,-0.498789 -0.73288,-1.25 z m -27.8424,-6.273867 c -0.47948,-2.508211 0.38677,-4.005343 1.60983,-2.78228 C 119.32657,34.659906 119.12704,39 118.11658,39 c -0.48589,0 -1.10054,-1.13574 -1.36589,-2.523867 z M 133,36 c 0,-1.65 0.45,-3 1,-3 0.55,0 1,1.35 1,3 0,1.65 -0.45,3 -1,3 -0.55,0 -1,-1.35 -1,-3 z"
       id="path3065"
       inkscape:connector-curvature="0" />
    <path
       style="fill:#1f374d"
       d="m 42.551521,109.25 c -0.997792,-4.2625 -2.489254,-9.859088 -3.31436,-12.436862 l -1.500193,-4.686862 3.631516,-4.947115 C 43.365818,84.458248 45,81.596162 45,80.818971 45,80.041779 43.2,77.648243 41,75.5 c -3.521145,-3.438306 -4,-3.651358 -4,-1.779673 0,1.169422 1.112452,3.448297 2.472116,5.064165 2.501311,2.97264 2.479685,4.517979 -0.04965,3.547383 C 37.37616,81.546632 34,75.626239 34,72.823096 c 0,-1.34246 0.578176,-3.23154 1.284837,-4.197956 1.170682,-1.601003 1.792613,-1.224768 7,4.234634 C 45.428176,76.155237 48,79.514712 48,80.325274 48,81.135835 46.425,84.139462 44.5,87 41.052915,92.122347 40.122074,95 41.912222,95 43.278709,95 52,82.404277 52,80.430729 52,79.489744 47.782409,74.395381 42.627576,69.109923 37.472743,63.824466 33.434512,59.014695 33.653728,58.421545 c 0.219216,-0.59315 4.999307,3.600427 10.622424,9.319061 7.170191,7.291988 10.324968,9.905244 10.562404,8.74936 C 55.464717,73.441699 54.069652,70.360709 49.937792,65.666668 47.678521,63.100001 46.304147,61 46.883628,61 c 0.579482,0 0.808748,-0.7875 0.509482,-1.75 -0.399719,-1.285574 -0.226939,-1.219228 0.651051,0.25 2.039388,3.412712 27.273527,28.421692 28.138304,27.887231 C 78.527261,85.938067 76.57018,82.016224 70.5,76 66.925,72.456777 64,68.982277 64,68.278888 64,66.671621 65.236776,66.636776 66.8,68.2 c 0.933333,0.933333 1.2,0.266667 1.2,-3 0,-5.158447 1.531306,-5.51189 2.458873,-0.567535 l 0.681454,3.632464 3.407265,-5.059497 C 78.357825,57.547561 80,56.117335 80,58.456745 c 0,0.866129 -2.027269,4.360841 -4.505042,7.766029 l -4.505041,6.191249 4.205041,4.284625 c 4.79712,4.887908 5.62565,9.632122 2.320054,13.284764 L 75.630024,92.0663 70.412684,86.913768 C 65.555909,82.117324 63,81.265745 63,84.444007 c 0,0.729285 1.084841,2.036788 2.410758,2.905562 2.255999,1.478187 3.55894,4.308251 5.018482,10.900431 0.484484,2.18822 1.172367,2.75 3.367306,2.75 C 77.801841,101 81,103.60023 81,106.8567 81,110.73507 79.281493,112 74.012408,112 c -4.18738,0 -5.020502,-0.43985 -9.55,-5.04194 C 60.672999,103.10793 59.5,101.18641 59.5,98.829038 c 0,-4.295921 -2.915348,-6.108758 -5.011405,-3.116218 -0.843231,1.203882 -2.150894,2.806622 -2.905917,3.561645 -2.342764,2.342765 -0.775241,6.618235 3.005639,8.197985 2.146379,0.89682 3.570509,2.31218 3.983939,3.95942 C 59.763548,116.17835 58.677781,117 51.214228,117 l -6.848541,0 -1.814166,-7.75 z m 13.254447,3.54533 c 0.228228,-1.20368 -0.63546,-1.95309 -2.938766,-2.54994 -2.840305,-0.73599 -3.419706,-1.46352 -4.482044,-5.62788 -1.094885,-4.29194 -1.030196,-4.972472 0.630529,-6.633197 1.017822,-1.017822 2.607428,-3.005674 3.532459,-4.417449 2.133924,-3.25678 4.847301,-3.262326 8.093086,-0.01654 1.871513,1.871513 2.389594,3.190722 1.946454,4.956332 -0.484955,1.932214 0.234641,3.197374 3.654222,6.424674 3.420089,3.22778 5.009789,4.02358 8.077643,4.04367 3.394861,0.0222 3.784021,-0.22517 3.5,-2.225 -0.256766,-1.80793 -0.977604,-2.26097 -3.668802,-2.30585 -4.131898,-0.0689 -7.096685,-3.50888 -7.128513,-8.271072 C 66.998123,92.565345 62.48102,87 59.576923,87 c -2.115337,0 -2.000659,-0.577897 0.858559,-4.326525 2.373592,-3.11194 2.389785,-3.253664 0.637215,-5.577099 C 59.141874,74.536627 57,74.964429 57,77.909826 c 0,1.875105 -10.051547,16.680233 -12.787525,18.835006 -1.437303,1.131976 -1.416761,1.947911 0.226582,8.999998 0.99395,4.26534 2.018079,8.11653 2.275843,8.55818 0.257764,0.44166 2.335978,0.66666 4.618254,0.5 2.962797,-0.21635 4.242035,-0.79055 4.472814,-2.00768 z M 189.18963,113.25 c 0.2569,-3.10398 0.86281,-4.00841 3.51718,-5.25 4.5896,-2.14681 5.21923,-5.91934 1.74757,-10.470924 -4.02571,-5.277975 -7.05545,-4.384438 -6.62852,1.954895 0.16645,2.471519 -0.72808,3.979869 -4.65283,7.845609 -4.73371,4.66253 -4.99822,4.77791 -10.26597,4.47813 L 167.5,111.5 167.17711,107.53988 C 166.81117,103.05184 168.63528,101 172.99113,101 176.50902,101 178,99.273529 178,95.2 c 0,-2.562784 0.87591,-4.27591 3.55714,-6.957143 3.22069,-3.220686 3.40979,-3.704501 1.99922,-5.115067 -1.41057,-1.410567 -2.06645,-1.055714 -6.93426,3.751626 l -5.37633,5.309551 -1.62289,-2.31699 C 166.78184,85.815821 167.5435,81.851651 172,77.5 c 2.2,-2.148243 4,-4.296432 4,-4.773753 0,-0.477322 -1.99728,-3.666793 -4.4384,-7.087713 -2.68142,-3.757677 -4.13789,-6.706083 -3.67927,-7.448146 0.50542,-0.817788 2.07232,0.683933 4.6884,4.493382 l 3.92927,5.721673 0.31037,-3.702722 C 177.00151,62.422337 177.63719,61 178.46521,61 c 0.99131,0 1.20355,1.050722 0.80796,4 -0.51108,3.810419 0.71513,5.445988 2.23691,2.983688 0.34546,-0.558971 1.09294,-0.729036 1.66106,-0.377921 0.57982,0.358353 -1.81784,3.545816 -5.46583,7.266312 -6.59972,6.730885 -8.28353,9.636115 -6.87899,11.868981 0.5338,0.848604 5.23731,-3.262332 14.8739,-13 10.09884,-10.204779 14.38453,-13.921642 15.12102,-13.114068 0.72603,0.796101 -0.0127,2.117325 -2.51596,4.5 -3.83271,3.648033 -6.7687,9.314167 -5.71211,11.023755 C 192.97044,76.761192 197.39935,73.079633 203,67.5 c 5.70964,-5.688219 10.0262,-9.266627 10.41644,-8.635195 0.36781,0.595126 -3.38478,5.117888 -8.37502,10.09389 C 198.6628,75.319121 196,78.681982 196,80.377152 c 0,3.211769 8.81459,15.208257 10.17494,13.847903 0.67697,-0.676961 -0.17104,-2.721348 -2.58361,-6.2286 C 201.6161,85.124972 200,81.798199 200,80.603628 200,78.595413 209.50471,68 211.3062,68 c 0.40881,0 1.17921,1.146524 1.71199,2.547832 1.13939,2.996834 -0.59232,7.928437 -3.7809,10.767311 -3.19162,2.841586 -3.93665,0.02427 -0.84653,-3.201122 C 210.92537,75.468463 211.90429,72 210.11636,72 209.03155,72 202,79.674998 202,80.859079 c 0,0.469324 1.60377,2.953713 3.56394,5.520864 4.15665,5.443808 4.20363,5.89957 1.55844,15.120057 -1.10449,3.85 -2.50121,8.9125 -3.10382,11.25 l -1.09565,4.25 -7.02182,0 -7.02182,0 0.31036,-3.75 z m 13.71383,-6.81846 c 2.14398,-8.548314 2.14435,-8.572402 0.15833,-10.249995 -3.70812,-3.132246 -12.05161,-15.610335 -12.68094,-18.964953 l -0.62568,-3.33521 -2.37759,2.233623 c -2.98064,2.800171 -2.96619,3.246726 0.24111,7.451717 C 189.62302,86.19453 189.87562,87 188.69541,87 c -2.97188,0 -7.60254,4.964982 -8.21703,8.810281 -1.01486,6.350639 -2.88242,8.730859 -6.54865,8.346299 -3.14434,-0.32982 -4.88192,0.9407 -4.91442,3.59342 -0.01,0.80438 1.48476,1.25 4.19253,1.25 3.50349,0 4.8426,-0.61983 8,-3.70295 C 183.98861,102.5817 185,100.76574 185,98.488182 c 0,-3.837548 1.70455,-6.187427 5.07641,-6.998288 2.1848,-0.525399 3.14881,0.07898 6.34231,3.976222 3.76145,4.590354 3.7645,4.601684 2.57385,9.564834 -0.99689,4.15551 -1.56498,4.96905 -3.46987,4.96905 -2.58116,0 -5.02148,2.38393 -4.04977,3.9562 0.35481,0.57409 2.58829,1.0438 4.9633,1.0438 l 4.3182,0 2.14903,-8.56846 z m -81.81673,-8.500273 c -1.85651,-1.549884 -7.248,-4.456211 -11.9811,-6.458504 C 97.243644,86.454658 91.379634,82.364381 88.979404,77.434276 86.605917,72.5591 86.347757,64.786203 88.5,63 89.325,62.315311 90,61.135211 90,60.377555 90,59.6199 90.45,59 91,59 c 1.518744,0 1.194537,2.593659 -0.5,4 -1.893993,1.571875 -1.951393,7.983903 -0.110903,12.388815 2.125947,5.088107 6.187767,8.20966 16.593083,12.751961 5.2348,2.285184 11.31782,5.375785 13.51782,6.868001 l 4,2.71312 4.5,-2.912455 c 2.475,-1.601851 9,-5.073906 14.5,-7.715678 C 153.84549,82.124595 157.10864,79.500932 158.93339,74.6849 160.45708,70.663429 160.25023,65.393084 158.5,63.642857 156.80317,61.94603 156.48591,59 158,59 c 0.55,0 1,0.6199 1,1.377555 0,0.757656 0.72775,1.981535 1.61722,2.719733 2.523,2.0939 1.21977,11.238753 -2.32976,16.348177 -2.28942,3.29554 -5.11529,5.208527 -15.09572,10.219131 -6.75346,3.390528 -13.73038,7.271607 -15.50427,8.62462 l -3.22526,2.460024 -3.37548,-2.817973 z M 67,58.5 C 66.315311,57.675 65.114756,57 64.332101,57 62.686322,57 58,52.593103 58,51.045455 c 0,-0.575 0.7875,-0.342468 1.75,0.516738 0.9625,0.859206 3.506547,2.692501 5.653438,4.073989 l 3.903439,2.511797 2.096561,-2.450717 c 2.66232,-3.112044 5.00219,-3.899393 9.230805,-3.1061 4.626074,0.867857 4.376085,2.834476 -0.26458,2.0814 -3.969561,-0.644171 -8.727592,1.211846 -9.717097,3.790453 C 69.906389,60.40752 68.594129,60.420808 67,58.5 z m 108.34753,-1.312385 c -1.8257,-2.279598 -2.85045,-2.661254 -6.75,-2.513978 -5.15806,0.194807 -6.19209,-1.104725 -1.60847,-2.021449 3.6904,-0.738079 5.76426,-0.04728 9.10623,3.033277 2.30044,2.120492 2.7404,2.217448 3.87245,0.853408 C 180.67017,55.692493 181.8041,55 182.48759,55 c 0.68348,0 2.42838,-0.932661 3.87755,-2.07258 2.50608,-1.971284 3.45301,-1.65123 1.86955,0.63189 -0.59201,0.85359 -10.15982,6.605027 -10.61064,6.378305 -0.0682,-0.03431 -1.09266,-1.271811 -2.27652,-2.75 z M 38.522697,53.023044 c -2.696165,-2.737326 -4.677882,-5.201193 -4.403815,-5.47526 0.274067,-0.274067 2.931565,1.965563 5.905551,4.976956 C 42.998419,55.536133 44.980135,58 44.428248,58 43.876361,58 41.218863,55.76037 38.522697,53.023044 z M 203,57.231351 c 0,-0.846284 4.85108,-5.60632 8.44196,-8.283514 1.70914,-1.27426 1.83656,-1.268006 1.06279,0.05216 C 210.08548,53.12769 203,59.263887 203,57.231351 z M 43.83541,48.195172 c -0.184475,-0.449509 -2.249489,-2.531102 -4.588919,-4.625763 -3.523956,-3.155252 -4.510184,-3.595453 -5.75,-2.566497 C 32.660148,41.697015 32,41.803758 32,41.244889 c 0,-0.55 0.673421,-1.558889 1.496491,-2.241977 1.239974,-1.029087 2.225596,-0.58692 5.75,2.579546 6.493104,5.833665 6.842994,6.244203 5.84659,6.860015 -0.507243,0.313493 -1.073195,0.202208 -1.257671,-0.247301 z M 67.191677,46.935317 C 66.521878,45.862797 64.872288,45 63.491526,45 62.121187,45 61,44.55 61,44 c 0,-1.810289 4.857064,-1.042157 6.282991,0.993639 0.768019,1.096501 1.693536,1.696501 2.056704,1.333333 C 69.702863,45.963804 70,46.165109 70,46.774316 c 0,2.030009 -1.584382,2.120842 -2.808323,0.161001 z m 134.422433,0.501455 c -0.36365,-0.947665 -0.42559,-1.958621 -0.13765,-2.246567 0.28795,-0.287946 0.52354,0.09859 0.52354,0.858968 0,0.760379 2.4197,-1.007139 5.37712,-3.927817 l 5.37711,-5.310323 1.62289,2.31699 C 215.2697,40.402367 216,41.895012 216,42.445012 c 0,0.55 -0.7303,-0.04265 -1.62288,-1.316989 l -1.62289,-2.31699 -5.23946,5.174384 c -4.36194,4.307756 -5.35021,4.885803 -5.90066,3.451355 z M 179.12756,46.25 C 179.8824,45.2875 180.95,44.169391 181.5,43.765313 182.98415,42.674928 187,42.846286 187,44 c 0,0.55 -1.36412,1 -3.03138,1 -1.77208,0 -3.27051,0.623137 -3.60699,1.5 -0.31659,0.825 -1.03256,1.5 -1.59106,1.5 -0.5585,0 -0.39786,-0.7875 0.35699,-1.75 z M 55,44 c 0,-0.55 0.675,-1 1.5,-1 0.825,0 1.5,0.45 1.5,1 0,0.55 -0.675,1 -1.5,1 C 55.675,45 55,44.55 55,44 z m 135,0 c 0,-0.55 0.45,-1 1,-1 0.55,0 1,0.45 1,1 0,0.55 -0.45,1 -1,1 -0.55,0 -1,-0.45 -1,-1 z m -86.46489,-2.586764 c -0.9322,-1.42272 -1.39522,-2.88522 -1.02893,-3.25 C 103.21723,37.455117 107,41.61982 107,43.110784 c 0,1.732476 -1.79305,0.854013 -3.46489,-1.697548 z m 41.37511,0.75452 c 1.34074,-2.505199 3.80396,-4.439246 4.40835,-3.461315 C 149.95877,39.7423 146.52912,44 145.05452,44 c -0.78068,0 -0.82484,-0.560653 -0.1443,-1.832244 z m 30.16873,-1.483497 c -0.18403,-1.901521 2.07454,-4.54183 4.64994,-5.435862 C 183.68192,33.876132 199,33.637337 199,34.947978 199,35.601975 195.7653,36 190.45034,36 c -8.55872,0 -13.66765,1.461698 -14.78105,4.22896 -0.28127,0.699072 -0.54692,0.903956 -0.59034,0.455299 z M 69.656781,38.22619 C 68.310068,36.877901 65.750767,36.424755 57.966305,36.156293 52.217906,35.958048 48,35.389369 48,34.812585 c 0,-0.6228 3.76227,-0.870354 9.974226,-0.656292 8.712966,0.300245 10.254976,0.624711 12.194444,2.565929 1.22112,1.222222 1.993433,2.449008 1.716251,2.726191 -0.277183,0.277182 -1.279846,-0.272818 -2.22814,-1.222223 z m 47.093909,-1.750057 c -0.47948,-2.508211 0.38677,-4.005343 1.60983,-2.78228 C 119.32657,34.659906 119.12704,39 118.11658,39 c -0.48589,0 -1.10054,-1.13574 -1.36589,-2.523867 z M 133,36 c 0,-1.65 0.45,-3 1,-3 0.55,0 1,1.35 1,3 0,1.65 -0.45,3 -1,3 -0.55,0 -1,-1.35 -1,-3 z m 24.06361,-1.5 c 0,-0.55 0.66069,-1.873508 1.46819,-2.94113 0.80751,-1.067621 1.4682,-1.491129 1.4682,-0.941129 0,0.55 -0.66069,1.873508 -1.4682,2.941129 -0.8075,1.067622 -1.46819,1.49113 -1.46819,0.94113 z M 89.666667,33.333333 C 89.3,32.966667 89,32.201667 89,31.633333 c 0,-0.626604 0.465771,-0.567562 1.183333,0.15 0.650834,0.650834 0.950834,1.415834 0.666667,1.7 -0.284167,0.284167 -0.816667,0.216667 -1.183333,-0.15 z M 87,18.010433 C 87,15.518106 93.537056,15 124.98331,15 c 30.84165,0 36.01605,0.266784 36.01713,1.856989 2.4e-4,0.353656 -15.75821,0.519197 -35.01877,0.367869 C 102.70292,17.04196 90.298248,17.305199 88.981236,18.010042 87.585971,18.756765 87,18.756881 87,18.010433 z"
       id="path3063"
       inkscape:connector-curvature="0" />
    <path
       style="fill:#171f29"
       d="m 42.128387,107.25 c -1.245897,-5.3625 -2.76051,-10.7625 -3.365806,-12 -1.227402,-2.509363 -0.420615,-4.572126 3.813415,-9.75 2.098782,-2.566639 2.40927,-2.696102 2.149395,-0.896223 -0.167064,1.157078 -1.073622,3.278745 -2.014572,4.714817 C 40.842561,92.169915 40.456665,95 41.936131,95 c 0.514872,0 2.830073,-2.7 5.144891,-6 2.314818,-3.3 4.365736,-6 4.557595,-6 2.03607,0 -3.525748,9.979457 -7.151185,12.831226 l -2.369717,1.864019 2.288181,8.402375 2.28818,8.40238 4.730106,0.30794 c 4.436652,0.28884 4.70981,0.16516 4.402962,-1.99357 -0.235859,-1.6593 -1.15102,-2.44327 -3.279705,-2.80954 -2.533669,-0.43596 -3.107213,-1.14321 -4.042628,-4.98507 -1.049707,-4.31127 -0.958899,-4.65366 2.45256,-9.247321 1.948446,-2.623655 4.280276,-4.770767 5.181845,-4.771361 3.077632,-0.002 6.13551,3.459108 6.251112,7.075471 0.07696,2.407421 1.1271,4.548411 3.52035,7.177161 2.95537,3.24618 3.999239,3.74629 7.819551,3.74629 4.00018,0 4.379251,-0.20857 4.089322,-2.25 -0.256766,-1.80793 -0.977604,-2.26097 -3.668802,-2.30585 -4.131898,-0.0689 -7.096685,-3.50888 -7.128513,-8.271073 -0.01552,-2.32274 -0.902384,-4.207071 -2.93822,-6.242908 -2.979834,-2.979833 -2.572282,-4.797032 0.684899,-3.053842 2.184835,1.169288 3.782245,4.186239 5.227895,9.873673 0.941138,3.7026 1.433056,4.25 3.819228,4.25 C 77.8035,101 81,103.60594 81,106.8567 81,110.73507 79.281493,112 74.012408,112 c -4.177712,0 -5.024679,-0.44376 -9.4797,-4.96679 -4.059984,-4.12197 -4.904066,-5.6103 -4.962408,-8.750002 -0.0974,-5.241587 -3.0672,-5.60257 -6.844994,-0.832018 -3.573909,4.51309 -2.914126,8.15414 1.83733,10.13943 3.524866,1.47278 4.962763,4.17863 3.937364,7.40938 -0.552009,1.73923 -1.513034,2 -7.370561,2 l -6.735785,0 -2.265267,-9.75 z m 147.061243,6 c 0.2569,-3.10398 0.86281,-4.00841 3.51718,-5.25 4.5896,-2.14681 5.21923,-5.91934 1.74757,-10.470924 C 192.97391,95.588084 191.15686,94 190.41649,94 c -1.90124,0 -3.31462,3.072301 -2.76514,6.01064 0.3683,1.96944 -0.55288,3.48828 -4.41051,7.27211 -4.74199,4.65127 -5.02537,4.77497 -10.30844,4.5 -5.36375,-0.27918 -5.43645,-0.325 -5.75273,-3.62629 -0.39573,-4.1304 2.07912,-7.15646 5.85287,-7.15646 3.37363,0 4.51969,-1.394537 5.29767,-6.446249 0.65808,-4.273106 4.73072,-9.252162 6.6152,-8.087488 0.7816,0.483051 0.33895,1.467626 -1.37317,3.054371 -1.49971,1.389884 -2.78416,3.95247 -3.16038,6.305221 C 179.45319,101.82101 177.16406,104.5 173,104.5 c -2.86828,0 -3.55768,0.4061 -3.81955,2.25 -0.28953,2.0386 0.0907,2.25 4.04705,2.25 3.73684,0 4.90066,-0.54692 8.06955,-3.79216 2.61424,-2.67723 3.70295,-4.67911 3.70295,-6.808873 0,-3.727442 1.72407,-6.103155 5.00006,-6.88991 2.08442,-0.500592 3.13821,0.163026 6.33859,3.991715 l 3.83855,4.592128 -1.18834,4.95355 C 197.99557,109.18692 197.42664,110 195.5227,110 c -2.58116,0 -5.02148,2.38393 -4.04977,3.9562 0.35481,0.57409 2.58829,1.0438 4.9633,1.0438 l 4.3182,0 2.18902,-8.72792 c 1.39317,-5.55473 1.81293,-8.853286 1.15456,-9.072743 -1.94545,-0.648484 -8.2502,-10.17061 -7.90338,-11.936555 0.25789,-1.313128 1.14848,-0.600241 3.49139,2.794735 1.72986,2.506634 3.81811,5.115985 4.64056,5.798558 2.33821,1.940541 3.01584,-0.403838 1.00416,-3.474052 -0.96381,-1.470958 -1.87912,-3.621168 -2.03402,-4.778246 -0.22969,-1.715691 0.26542,-1.458129 2.68392,1.396223 3.53078,4.167085 3.58379,4.868392 1.07632,14.23884 -1.06867,3.99364 -2.43602,9.17366 -3.03855,11.51116 l -1.0955,4.25 -7.02182,0 -7.02182,0 0.31036,-3.75 z M 121.11987,97.958928 C 119.26858,96.413403 113.87176,93.446595 109.12694,91.366021 104.38212,89.285447 98.975359,86.580706 97.111909,85.355484 93.783995,83.167375 90.01594,78.468711 90.010327,76.5 c -0.0016,-0.55 0.885112,0.456349 1.9704,2.236331 1.54839,2.539516 4.723408,4.552264 14.746263,9.348141 7.02515,3.361496 13.74715,7.010048 14.93776,8.107894 l 2.16475,1.996083 7.33525,-4.403427 c 4.03439,-2.421884 9.9439,-5.501785 13.13226,-6.844224 3.18835,-1.342439 7.6397,-3.993015 9.89188,-5.890168 2.61445,-2.202312 3.71525,-2.744611 3.04482,-1.5 -2.00847,3.728591 -5.79617,6.348113 -16.23371,11.227004 -5.775,2.69945 -11.85318,6.051821 -13.50708,7.449715 l -3.00707,2.541621 -3.36598,-2.810042 z M 72.235569,87.604081 C 70.440132,85.218511 64.398782,78.369178 58.810347,72.383341 L 48.649555,61.5 62.074777,74.702264 C 73.272509,85.71403 75.790357,87.738286 77.25,86.902574 78.295986,86.3037 79,86.278336 79,86.839526 c 0,0.516398 -0.7875,1.875592 -1.75,3.020431 -1.743708,2.07404 -1.761737,2.065929 -5.014431,-2.255876 z m 97.406811,1.671242 c -1.3043,-2.522226 -1.31598,-2.94199 -0.0819,-2.94199 0.79172,0 1.43949,0.477565 1.43949,1.061256 0,0.58369 3.7125,-2.533931 8.25,-6.928048 14.32392,-13.871287 18.64867,-17.351419 8,-6.437607 -5.6375,5.777868 -10.25,10.97584 -10.25,11.551049 0,0.575209 -1.31316,2.303921 -2.91813,3.841582 l -2.91813,2.795747 -1.52136,-2.941989 z M 58.91022,85.167756 c 0.539323,-1.007735 1.700575,-2.429782 2.580561,-3.160105 1.32335,-1.098283 1.289566,-0.782596 -0.195404,1.825922 -1.873732,3.291422 -4.098725,4.536013 -2.385157,1.334183 z m 127.35026,-0.852708 c -1.72493,-3.714719 -1.0299,-3.847018 1.59049,-0.302749 1.43314,1.938418 1.75939,2.984961 0.92897,2.979899 -0.70397,-0.0043 -1.83772,-1.209009 -2.51946,-2.67715 z M 168,82.402948 c 0,-0.548379 1.91191,-2.775879 4.24868,-4.95 L 176.49736,73.5 l -3.4959,4 c -1.92275,2.2 -3.83466,4.4275 -4.24869,4.95 C 168.28387,83.041757 168,83.024014 168,82.402948 z M 39.278145,80.75 C 36.136739,76.688165 36.601822,75.882805 40,79.5 c 1.291745,1.375 1.875287,2.5 1.296759,2.5 -0.578528,0 -1.486905,-0.5625 -2.018614,-1.25 z M 75,78.5 c -1.849812,-1.908521 -3.138294,-3.695039 -2.863294,-3.970039 0.275,-0.275 2.013482,1.061518 3.863294,2.970039 1.849812,1.908521 3.138294,3.695039 2.863294,3.970039 C 78.588294,81.745039 76.849812,80.408521 75,78.5 z m 131,2.796759 c 0,-0.521472 1.18607,-2.039072 2.63572,-3.372445 2.35194,-2.1633 2.51932,-2.200129 1.55459,-0.34207 C 208.89925,80.068845 206,82.63889 206,81.296759 z m -6,-2.14078 c 0,-0.398365 2.47141,-3.165013 5.49203,-6.148109 4.42536,-4.370388 5.73636,-5.177688 6.75,-4.156594 1.01218,1.019616 0.95134,1.150587 -0.31136,0.670311 -1.0514,-0.399907 -3.2791,1.210932 -6.75,4.880894 C 202.3313,77.41527 200,79.554344 200,79.155979 z m -158.49352,-5.1494 c -4.027647,-4.089134 -5.129225,-4.735638 -6.350366,-3.726956 -1.29508,1.069757 -1.304555,0.942788 -0.07677,-1.028751 1.395594,-2.240997 1.420407,-2.229379 6.863554,3.213768 3.004593,3.004593 5.231962,5.693831 4.949708,5.976084 -0.282253,0.282253 -2.706011,-1.713112 -5.386129,-4.434145 z M 44.018243,68.615159 34.536486,58.5 44.768243,68.481238 C 50.395709,73.970919 55,78.583419 55,78.731238 55,79.92105 52.188298,77.330991 44.018243,68.615159 z M 193.81947,77.5 c 0.57362,-1.1 4.99802,-5.825 9.832,-10.5 l 8.78906,-8.5 -7.40696,8 c -11.43235,12.347691 -12.42424,13.320644 -11.2141,11 z M 65.143237,69.109687 c -0.746219,-0.472828 -0.971219,-1.093705 -0.5,-1.379727 0.47122,-0.286021 1.437005,0.107729 2.14619,0.875 1.428891,1.545928 0.463955,1.841781 -1.64619,0.504727 z M 180.86331,68.76101 C 182.08976,67.196589 184,67.175075 184,68.725684 c 0,0.334207 -0.2961,0.311554 -0.65799,-0.05034 -0.3619,-0.361895 -1.3744,-0.0994 -2.25,0.583333 -1.40633,1.096545 -1.433,1.038501 -0.2287,-0.497666 z M 73,65.5 c 0.684689,-0.825 1.469889,-1.5 1.744889,-1.5 0.275,0 -0.0602,0.675 -0.744889,1.5 -0.684689,0.825 -1.469889,1.5 -1.744889,1.5 -0.275,0 0.0602,-0.675 0.744889,-1.5 z m -8.299399,-8.943662 c -2.08967,-1.240325 -4.311814,-2.767551 -4.938099,-3.393836 -1.35241,-1.35241 5.69814,2.144981 7.739446,3.839115 0.775743,0.64381 1.949683,0.837294 2.608756,0.429964 0.758072,-0.468514 0.936175,-0.316451 0.484788,0.413911 -0.924924,1.496556 -1.363001,1.400753 -5.894891,-1.289154 z m 113.814379,1.419426 c 0.74681,-1.208367 8.67241,-5.121709 9.23449,-4.559624 0.2213,0.221294 -1.90367,1.560606 -4.72216,2.976249 -2.81848,1.415642 -4.84903,2.128161 -4.51233,1.583375 z M 38.958208,52.25 34.5,47.5 l 4.75,4.458208 c 2.6125,2.452014 4.75,4.589514 4.75,4.75 C 44,57.459094 43.102173,56.66519 38.958208,52.25 z M 174.5,55.402342 c -1.27842,-0.980578 -3.53337,-1.417494 -6.25,-1.210991 -4.88025,0.370969 -5.70774,-0.649802 -1.24957,-1.541437 3.42642,-0.685285 6.97201,0.407022 8.91311,2.74591 1.65675,1.996266 1.18341,1.998448 -1.41354,0.0065 z m 29.5,1.503554 c 0,-0.275 1.8,-2.257653 4,-4.405896 2.2,-2.148243 4,-3.680896 4,-3.405896 0,0.275 -1.8,2.257653 -4,4.405896 -2.2,2.148243 -4,3.680896 -4,3.405896 z M 71,55.484157 c 0,-1.27669 6.662456,-3.271339 9.265033,-2.773825 4.540154,0.867906 4.043118,2.078727 -0.636774,1.551235 -2.384475,-0.268765 -5.3013,0.02827 -6.481834,0.660069 C 71.965891,55.553438 71,55.806573 71,55.484157 z M 39.799357,43.325673 C 35.618331,39.144647 34.933747,38.795881 33.312515,40.020904 31.576468,41.332683 31.574333,41.3094 33.261905,39.469041 34.98305,37.592069 35.144711,37.668521 40.25,42.77381 43.124405,45.648214 45.250627,48 44.974937,48 c -0.275689,0 -2.6047,-2.103447 -5.17558,-4.674327 z M 207.13605,42.75 c 2.59339,-2.6125 5.31121,-4.736316 6.0396,-4.719591 0.72839,0.01672 0.42435,0.524547 -0.67565,1.128495 -1.1,0.603948 -3.81782,2.727764 -6.03961,4.719591 -3.08539,2.766056 -2.92579,2.49949 0.67566,-1.128495 z m -26.26361,2 c 0.75651,-0.964622 2.55166,-1.688883 4,-1.613818 L 187.5,43.272364 185,43.732 c -1.375,0.2528 -3.175,0.979018 -4,1.613818 -1.30508,1.004202 -1.32166,0.926779 -0.12756,-0.595818 z M 63,44 60.5,43.19936 63.190983,43.09968 C 64.671024,43.044856 66.160081,43.45 66.5,44 c 0.702545,1.136742 0.04948,1.136742 -3.5,0 z m -7.729167,-0.604167 c 0.332292,-0.332291 1.194792,-0.367818 1.916667,-0.07895 0.797733,0.319226 0.560776,0.556183 -0.604167,0.604167 -1.054166,0.04342 -1.644791,-0.192928 -1.3125,-0.52522 z m 48.477687,-1.867327 c -0.97182,-1.336453 -1.33613,-2.665341 -0.81842,-2.985305 0.51318,-0.317163 1.63885,0.430996 2.50148,1.662575 2.90956,4.153976 1.29717,5.421163 -1.68306,1.32273 z m 42.25985,-0.540264 c 1.17951,-1.656467 2.56082,-2.754498 3.06958,-2.440069 1.18631,0.733181 -2.15287,5.378843 -3.89604,5.420402 -0.90026,0.02146 -0.63827,-0.923313 0.82646,-2.980333 z m 30.82746,-3.144056 c 2.6453,-3.007671 5.30377,-4.003916 7.30347,-2.736931 0.94245,0.597124 0.45838,0.866826 -1.57485,0.877432 -1.61455,0.0084 -4.08955,1.027813 -5.5,2.265313 L 174.5,40.5 176.83583,37.844186 z M 69.069944,37.206023 c -1.926738,-1.339229 -4.370168,-1.643055 -11.79706,-1.466894 -5.921592,0.140455 -9.144074,-0.13853 -8.760927,-0.758475 0.333342,-0.53936 4.292019,-0.978972 8.79706,-0.976916 6.40086,0.0029 8.901264,0.436805 11.440983,1.985302 1.7875,1.08986 3.25,2.213177 3.25,2.496262 0,0.712135 -0.174864,0.635788 -2.930056,-1.279279 z m 47.680746,-0.72989 c -0.54514,-2.851681 0.71821,-4.302531 1.64453,-1.888602 C 119.27151,36.871108 119.13707,39 118.11658,39 c -0.48589,0 -1.10054,-1.13574 -1.36589,-2.523867 z M 133,36 c 0,-1.65 0.45,-3 1,-3 0.55,0 1,1.35 1,3 0,1.65 -0.45,3 -1,3 -0.55,0 -1,-1.35 -1,-3 z m 57.5,-1 c 0.33992,-0.55 2.39148,-1 4.55902,-1 2.16754,0 3.94098,0.45 3.94098,1 0,0.55 -2.05156,1 -4.55902,1 -2.7847,0 -4.31848,-0.389188 -3.94098,-1 z m -4.22917,-0.604167 c 0.33229,-0.332291 1.19479,-0.367818 1.91667,-0.07895 0.79773,0.319226 0.56078,0.556183 -0.60417,0.604167 -1.05416,0.04342 -1.64479,-0.192928 -1.3125,-0.52522 z M 88.097199,16.5 C 89.478108,15.118584 144,14.557593 144,15.9248 c 0,0.656648 -10.04938,1.114139 -28.45122,1.295224 C 96.581483,17.406673 87.430783,17.16666 88.097199,16.5 z M 154,16 149.5,15.300387 154,15.165506 c 2.475,-0.07418 5.175,0.301338 6,0.834494 1.76153,1.138387 1.32226,1.138387 -6,0 z"
       id="path3061"
       inkscape:connector-curvature="0" />
  </g>
</svg>
