<?xml version="1.0" encoding="UTF-8" standalone="no"?>
<!-- Created with Inkscape (http://www.inkscape.org/) -->

<svg
   xmlns:dc="http://purl.org/dc/elements/1.1/"
   xmlns:cc="http://creativecommons.org/ns#"
   xmlns:rdf="http://www.w3.org/1999/02/22-rdf-syntax-ns#"
   xmlns:svg="http://www.w3.org/2000/svg"
   xmlns="http://www.w3.org/2000/svg"
   xmlns:sodipodi="http://sodipodi.sourceforge.net/DTD/sodipodi-0.dtd"
   xmlns:inkscape="http://www.inkscape.org/namespaces/inkscape"
   id="svg2"
   version="1.1"
   inkscape:version="0.48.3.1 r9886"
   width="248"
   height="144"
   sodipodi:docname="lyonrb_revamped.png">
  <metadata
     id="metadata8">
    <rdf:RDF>
      <cc:Work
         rdf:about="">
        <dc:format>image/svg+xml</dc:format>
        <dc:type
           rdf:resource="http://purl.org/dc/dcmitype/StillImage" />
        <dc:title></dc:title>
      </cc:Work>
    </rdf:RDF>
  </metadata>
  <defs
     id="defs6" />
  <sodipodi:namedview
     pagecolor="#ffffff"
     bordercolor="#666666"
     borderopacity="1"
     objecttolerance="10"
     gridtolerance="10"
     guidetolerance="10"
     inkscape:pageopacity="0"
     inkscape:pageshadow="2"
     inkscape:window-width="1280"
     inkscape:window-height="1000"
     id="namedview4"
     showgrid="false"
     inkscape:zoom="4.1514012"
     inkscape:cx="119.22289"
     inkscape:cy="73.371107"
     inkscape:window-x="0"
     inkscape:window-y="24"
     inkscape:window-maximized="1"
     inkscape:current-layer="svg2" />
  <g
     id="g3188"
     inkscape:export-filename="/home/fabien/community/git/rulu2014/source/img/lyon_revamped.png"
     inkscape:export-xdpi="150"
     inkscape:export-ydpi="150">
    <path
       style="fill:#29435b"
       d="M 41.65404,105.28647 C 40.129602,99.37397 38.651746,93.630672 38.369917,92.523585 38.03414,91.204579 39.088576,88.898409 41.42875,85.833576 43.392938,83.261158 45,80.545783 45,79.799409 c 0,-0.746374 -1.8,-3.114696 -4,-5.262939 -3.521145,-3.438306 -4,-3.651358 -4,-1.779673 0,1.169422 1.112452,3.448297 2.472116,5.064165 2.677696,3.182262 2.383657,4.743872 -0.593248,3.15068 -4.074255,-2.180475 -6.13951,-9.828882 -3.594031,-13.310032 1.170682,-1.601003 1.792613,-1.224768 7,4.234634 C 45.428176,75.191707 48,78.475028 48,79.192512 c 0,0.717484 -1.626399,3.939491 -3.614221,7.160016 -2.334553,3.782276 -3.270834,6.198887 -2.644379,6.825342 0.626455,0.626455 2.648687,-1.487236 5.71148,-5.96979 5.774296,-8.450976 5.905402,-8.041875 -6.66289,-20.790817 C 32.856975,58.370224 31.8,56.878972 31.8,53.733575 c 0,-1.960465 0.273219,-4.006559 0.607154,-4.546877 0.333935,-0.540318 0.156889,-2.166682 -0.393435,-3.614144 -0.737676,-1.940234 -0.611319,-3.5634 0.480887,-6.177417 l 1.481475,-3.54567 3.858155,3.055716 c 2.121986,1.680643 4.432468,3.747719 5.134405,4.593501 2.144105,2.583489 2.882703,1.781818 4.111142,-4.462214 l 1.180427,-6 8.619895,0.01474 c 9.452263,0.01617 12.790877,1.144892 14.99343,5.069015 1.845185,3.287426 0.865119,7.275675 -2.642268,10.752365 l -2.687399,2.66388 -0.524485,-3 C 65.699748,46.708192 64.617103,45.150923 63.247449,44.549342 62.011352,44.006421 61,43.218921 61,42.799342 c 0,-1.377577 4.726908,-0.796854 6,0.737128 1.901825,2.291558 3,1.799205 3,-1.345012 0,-4.783972 -2.60048,-6.154988 -11.674494,-6.154988 l -8.017014,0 -1.654246,7.528421 c -2.07462,9.441531 -2.07759,12.387788 -0.01562,15.499073 C 51.376,63.194359 75.306321,86.965187 76.182139,86.423902 78.527261,84.974537 76.570471,81.052982 70.5,75.03647 66.925,71.493247 64,68.018747 64,67.315358 c 0,-1.607267 1.236776,-1.642112 2.8,-0.07889 0.933333,0.933333 1.2,0.395953 1.2,-2.418213 0,-5.376011 -0.735309,-6.5129 -6.101287,-9.433431 -3.86709,-2.104734 -5.100372,-3.414621 -5.889462,-6.255285 C 54.612454,44.101182 54.755306,42.03647 56.5,42.03647 c 1.031115,0 1.5,1.034319 1.5,3.30887 0,4.12576 1.2861,5.735221 7.10428,8.890491 4.449781,2.413171 4.643777,2.43371 5.781382,0.612115 0.647407,-1.036662 2.343509,-2.328308 3.769116,-2.870322 C 77.231425,50.997984 84,51.670107 84,52.905608 c 0,0.355607 -2.884047,4.693026 -6.408994,9.63871 l -6.408994,8.992152 3.801629,4 c 2.090896,2.2 4.094784,4.979468 4.453084,6.176596 0.680565,2.273857 -1.718801,9.323404 -3.17329,9.323404 -0.46124,0 -3.054786,-2.25 -5.763435,-5 -5.292191,-5.372983 -6.241965,-5.836005 -7.144836,-3.48316 -0.352716,0.919164 0.419179,2.304418 1.958994,3.515637 2.384928,1.875984 3.67152,4.697518 5.115082,11.217523 0.515152,2.32674 1.120774,2.75 3.934824,2.75 3.882071,0 6.635936,2.54338 6.635936,6.12874 0,3.68794 -1.83724,4.87126 -7.563158,4.87126 -4.903086,0 -5.397903,-0.25096 -9.823499,-4.98228 -3.817306,-4.08101 -4.545442,-5.44008 -4.025175,-7.512987 0.656207,-2.614536 -0.925562,-5.535278 -2.960613,-5.466782 -1.854634,0.06242 -6.174049,7.287289 -5.816278,9.728599 0.215609,1.47123 1.522627,2.76395 3.724851,3.6841 2.194468,0.91691 3.619937,2.32298 4.036128,3.98122 1.19024,4.74229 0.103386,5.56813 -7.327997,5.56813 l -6.818511,0 -2.771708,-10.75 z m 14.023062,7.14908 c 0.72638,-1.89292 -1.465318,-3.59527 -3.884154,-3.01693 -1.20934,0.28915 -1.98495,-0.50886 -2.660188,-2.737 -1.751948,-5.78106 -2.178593,-8.64515 -1.287813,-8.64515 0.485678,0 2.130452,-1.8 3.655053,-4 1.595488,-2.30229 3.582427,-4 4.681455,-4 2.912721,0 7.011914,4.616629 6.637324,7.475144 -0.227365,1.735036 0.81096,3.585446 3.634408,6.476916 3.272303,3.35114 4.618292,4.04794 7.819312,4.04794 3.437826,0 3.831167,-0.24951 3.547052,-2.25 -0.256766,-1.80793 -0.977604,-2.26097 -3.668802,-2.30585 -3.789132,-0.0632 -7.09153,-3.419 -7.128513,-7.24381 -0.03427,-3.54412 -2.553331,-7.620467 -5.686922,-9.20258 -1.559423,-0.787334 -2.993258,-1.529365 -3.186301,-1.648959 -0.193043,-0.119593 0.815717,-1.74707 2.241688,-3.616616 L 62.983377,78.369482 60.667502,76.19383 C 58.265603,73.937363 57,74.208559 57,76.979707 57,78.812599 46.806559,93.89068 44.289301,95.781302 c -1.540506,1.157018 -1.529942,1.791902 0.149756,8.999998 0.99395,4.26534 2.003335,8.09267 2.243079,8.50517 0.880478,1.51494 8.358565,0.80751 8.994966,-0.85092 z M 55,73.396393 c 0,-1.993192 -2.3736,-5.056002 -9.687185,-12.5 -5.327951,-5.422957 -10.052951,-9.859923 -10.5,-9.859923 C 34.365767,51.03647 34,52.026406 34,53.236327 c 0,1.4211 3.451532,5.797861 9.75,12.363616 5.3625,5.590068 10.0875,10.225132 10.5,10.300143 0.4125,0.07501 0.75,-1.05165 0.75,-2.503693 z M 75.20805,61.28647 c 5.217521,-7.298497 5.201454,-7.25 2.401858,-7.25 -3.543436,0 -7.934265,5.859477 -7.045221,9.401712 0.358671,1.429058 0.786133,2.598288 0.949916,2.598288 0.163782,0 1.825834,-2.1375 3.693447,-4.75 z M 44.678812,52.285764 C 44.812233,50.234365 43.690704,48.342108 40.260645,44.831386 35.509427,39.968437 34,39.601909 34,43.311138 c 0,1.856344 8.386832,11.726696 9.962408,11.724626 0.295676,-3.89e-4 0.618057,-1.237889 0.716404,-2.75 z M 189.18963,112.28647 c 0.2569,-3.10398 0.86281,-4.00841 3.51718,-5.25 4.5896,-2.14681 5.21923,-5.91934 1.74757,-10.470924 -1.48047,-1.940992 -3.29099,-3.529076 -4.02338,-3.529076 -2.0034,0 -3.34508,3.095796 -2.40886,5.558224 0.68352,1.797796 -0.0669,3.041906 -4.43978,7.360436 -5.18047,5.11612 -5.34647,5.19217 -10.67234,4.88915 l -5.41002,-0.30781 -0.32289,-3.96012 c -0.36994,-4.53707 1.46106,-6.53988 5.97884,-6.53988 3.10794,0 4.84405,-2.341879 4.84405,-6.534259 0,-1.721385 1.26014,-3.925882 3.55714,-6.222884 3.22069,-3.220686 3.40979,-3.704501 1.99922,-5.115067 -1.41057,-1.410567 -2.06645,-1.055714 -6.93426,3.751626 l -5.37633,5.309551 -1.62289,-2.31699 c -2.85642,-4.078115 -2.08169,-8.305453 2.38207,-12.997841 4.58983,-4.824917 4.92587,-3.516264 -4.12869,-16.078672 -2.65782,-3.687495 -4.50477,-6.897076 -4.10433,-7.132403 0.40044,-0.235327 2.16418,-0.735743 3.91942,-1.112037 3.49394,-0.74904 6.75836,0.547835 9.30959,3.698467 1.44053,1.778982 1.70403,1.81092 2.91385,0.353179 0.73156,-0.881468 1.88931,-1.60267 2.5728,-1.60267 2.80078,0 6.52188,-4.207041 7.13998,-8.07239 0.8246,-5.15676 2.37243,-5.045078 2.37243,0.17118 0,3.2958 -0.60845,4.667164 -3.10576,7 -1.70816,1.595666 -3.66342,2.90121 -4.34501,2.90121 -2.25848,0 -4.71064,3.784126 -5.2958,8.172384 -0.53219,3.991007 -0.44452,4.218129 1.12713,2.919998 1.0356,-0.855376 2.06463,-1.047188 2.62291,-0.488911 0.55828,0.558276 -1.54968,3.49876 -5.373,7.495039 -6.88598,7.197476 -7.88772,8.874698 -6.56522,10.992174 1.24581,1.994679 27.6113,-24.28445 28.84974,-28.755243 0.58127,-2.098369 0.39798,-5.46753 -0.54401,-10 -2.32836,-11.20303 -1.41209,-10.335441 -10.91531,-10.335441 -7.82192,0 -8.52179,0.171274 -10.01555,2.451037 -0.94546,1.442967 -1.33851,3.29374 -0.95566,4.5 0.76564,2.412308 2.06686,2.660582 2.87717,0.548963 0.33648,-0.876863 1.83491,-1.5 3.60699,-1.5 3.50807,0 4.11956,1.706352 0.78138,2.180449 -1.71889,0.244121 -2.3717,1.145726 -2.76558,3.819551 l -0.51558,3.5 -3.23442,-3.173077 c -3.20183,-3.141107 -4.10903,-6.884158 -2.61324,-10.782121 1.18473,-3.087353 5.93411,-4.544802 14.81011,-4.544802 8.48931,0 8.5336,0.01331 9.14994,2.75 0.34063,1.5125 1.05857,4.500694 1.59541,6.64043 l 0.97608,3.890431 5.32378,-5.257652 5.32378,-5.257651 1.49325,2.367221 c 1.88567,2.989313 1.98691,16.336015 0.1507,19.867221 -0.71499,1.375 -5.15744,6.315065 -9.87211,10.977922 C 199.29516,74.233363 196,78.288799 196,79.564309 c 0,3.05472 8.91629,14.95587 10.22465,13.647508 0.72388,-0.723874 -0.0687,-2.557204 -2.59087,-5.993103 -5.04499,-6.872655 -4.79804,-9.146583 1.73123,-15.941022 l 5.36501,-5.582896 1.73878,2.653717 c 1.44207,2.20088 1.547,3.203889 0.61486,5.877819 -1.14692,3.290054 -4.7687,7.810138 -6.25797,7.810138 -1.54426,0 -0.83243,-2.20328 1.67431,-5.182369 4.36899,-5.192255 2.87625,-8.031325 -1.61292,-3.067631 -5.24304,5.797249 -5.21369,5.550768 -1.33261,11.19286 1.96957,2.863253 3.57992,5.959941 3.57856,6.881527 -0.001,0.921587 -0.90615,4.825613 -2.01065,8.675613 -1.10449,3.85 -2.50121,8.9125 -3.10382,11.25 l -1.09565,4.25 -7.02182,0 -7.02182,0 0.31036,-3.75 z m 13.69789,-6.75489 2.13309,-8.504891 -2.91285,-2.74511 C 198.10062,90.505188 190,78.220625 190,75.920202 c 0,-2.318404 -0.79856,-2.376005 -3.17126,-0.228744 -2.39622,2.168551 -2.32015,2.834191 0.78995,6.911734 2.08021,2.727299 2.28908,3.433278 1.01578,3.433278 -3.04344,0 -7.66911,5.276773 -8.3278,9.5 -0.97216,6.23315 -2.8853,8.53427 -6.49509,7.81232 -2.02967,-0.40594 -3.30255,-0.14713 -3.89748,0.79244 -1.8252,2.88248 -0.96883,3.89524 3.29374,3.89524 3.50349,0 4.8426,-0.61983 8,-3.70295 C 184.08187,101.5271 185,99.83232 185,97.333522 c 0,-3.68201 2.91279,-7.297052 5.87954,-7.297052 1.03374,0 3.54056,2.027056 5.57069,4.504569 l 3.69116,4.504571 -1.19354,5.33327 c -1.04886,4.68683 -1.45874,5.28258 -3.38151,4.91502 -2.38569,-0.45605 -5.12915,2.02291 -4.09341,3.69877 0.35481,0.57409 2.58829,1.0438 4.9633,1.0438 l 4.3182,0 2.13309,-8.50489 z M 213,53.805232 c 0,-1.522819 -0.34688,-2.768762 -0.77085,-2.768762 -1.56148,0 -18.16043,17.593483 -19.18448,20.333916 -2.20737,5.907109 0.52094,4.565075 10.08031,-4.958426 C 210.87848,58.687549 213,55.979162 213,53.805232 z m -38.12996,3.269323 c -1.37543,-1.860361 -3.14239,-3.038085 -4.5581,-3.038085 -1.27157,0 -2.31194,0.246987 -2.31194,0.54886 0,0.301872 1.9125,3.268524 4.25,6.592558 l 4.25,6.043699 0.30809,-3.554474 c 0.21437,-2.473068 -0.37527,-4.478774 -1.93805,-6.592558 z M 213,42.611654 l 0,-3 -5,4.924816 c -3.79449,3.737429 -5,5.648125 -5,7.924816 l 0,3 5,-4.924816 c 3.79449,-3.737429 5,-5.648125 5,-7.924816 z M 120,96.497998 C 117.525,94.729132 111.68404,91.641162 107.02008,89.635841 95.811178,84.816446 91.494796,81.69003 89.035167,76.609116 86.662857,71.708578 86.417512,64.390684 88.531803,61.59534 c 2.089676,-2.762798 2.102043,-26.208915 0.0154,-29.18802 -0.950375,-1.35685 -1.444931,-4.564049 -1.430045,-9.273854 0.02132,-6.746294 0.179885,-7.259432 2.517899,-8.148344 1.395578,-0.530597 17.460586,-0.948652 36.454796,-0.948652 l 33.95965,0 0.97525,2.5651 c 1.45761,3.833791 1.16604,11.545409 -0.56179,14.858719 -2.20317,4.224853 -2.20412,28.099729 -0.001,30.533923 3.35094,3.702749 0.7295,14.849511 -4.65759,19.80475 -1.35282,1.244371 -7.59968,4.774686 -13.88192,7.845145 C 135.64001,92.714566 129.15,96.236415 127.5,97.470438 l -3,2.243682 -4.5,-3.216122 z m 24.02746,-10.702813 c 10.9048,-5.139583 13.35499,-7.41304 15.12445,-14.033528 1.1386,-4.260087 1.07455,-5.149195 -0.59412,-8.247734 -2.69623,-5.006594 -2.76335,-28.988589 -0.0925,-33.064757 1.36397,-2.081688 1.64032,-3.873534 1.1873,-7.698553 -0.32478,-2.741953 -0.86659,-5.261843 -1.20406,-5.599756 -0.33746,-0.337913 -15.98894,-0.614387 -34.78105,-0.614387 l -34.16748,0 -0.303692,5.876966 c -0.196947,3.811259 0.242418,7.027808 1.25,9.151129 2.158058,4.54777 2.174711,28.066748 0.02189,30.913035 -1.723993,2.279322 -1.904623,7.271086 -0.406863,11.24377 1.91893,5.089802 6.964324,9.109256 16.846315,13.420758 5.27579,2.30182 11.37149,5.405491 13.54599,6.897046 l 3.95364,2.711919 5.07382,-3.245684 c 2.7906,-1.785127 9.33647,-5.254727 14.54636,-7.710224 z M 103.53511,40.449706 c -0.9322,-1.42272 -1.39522,-2.88522 -1.02893,-3.25 C 103.21723,36.491587 107,40.65629 107,42.147254 c 0,1.732476 -1.79305,0.854013 -3.46489,-1.697548 z m 41.05798,1.336764 c 1.50704,-2.64906 3.71093,-4.680137 4.52944,-4.174271 1.21364,0.750067 -2.05794,5.424271 -3.79656,5.424271 -0.8678,0 -1.16024,-0.498789 -0.73288,-1.25 z m -27.8424,-6.273867 c -0.47948,-2.508211 0.38677,-4.005343 1.60983,-2.78228 0.96605,0.966053 0.76652,5.306147 -0.24394,5.306147 -0.48589,0 -1.10054,-1.13574 -1.36589,-2.523867 z M 133,35.03647 c 0,-1.65 0.45,-3 1,-3 0.55,0 1,1.35 1,3 0,1.65 -0.45,3 -1,3 -0.55,0 -1,-1.35 -1,-3 z"
       id="path3065"
       inkscape:connector-curvature="0" />
    <g
       transform="matrix(0.54535122,0,0,0.54535122,51.764515,30.746983)"
       id="g3163">
      <path
         inkscape:connector-curvature="0"
         id="path3105"
         d="m 113.67685,68.546774 -23.132927,-23.990806 0,-1.344013 0,-1.344013 8.099344,-6.91518 c 4.454643,-3.80335 8.588533,-6.915181 9.186433,-6.915181 l 1.08709,0 0.85602,3.303514 0.85603,3.303514 -4.04246,5.077114 c -2.22335,2.792413 -4.04246,5.415848 -4.04246,5.829855 0,1.159358 3.95715,1.95729 9.78139,1.972348 l 5.28138,0.01365 0.55752,-1.75 c 0.30663,-0.9625 2.04638,-5.173078 3.86611,-9.35684 l 3.30859,-7.60684 -0.64749,-1.004364 -0.6475,-1.004365 -5,-0.789785 -5,-0.789786 2.5,-0.74933 2.5,-0.74933 18.5,-0.04205 18.5,-0.04205 4,0.709334 4,0.709334 0,0.919469 0,0.919469 -3.5,0.921686 -3.5,0.921687 2.4783,1.641881 c 2.77656,1.839488 3.29122,2.395394 9.38939,10.14188 l 4.3297,5.5 3.38709,-0.285782 3.38709,-0.285782 0.95097,-0.950974 0.95097,-0.950974 -2.43675,-2.690816 -2.43676,-2.690817 3.28734,2.272253 3.28734,2.272253 -0.6756,2.128618 -0.6756,2.128618 -22.11174,22.768705 c -12.16145,12.522788 -22.38942,22.772304 -22.72881,22.776702 -0.3394,0.0044 -11.0269,-10.787867 -23.75,-23.982811 z"
         style="fill:#fb8576" />
      <path
         inkscape:connector-curvature="0"
         id="path3103"
         d="M 115.25036,69.450269 93.788427,47.362957 92.416175,44.786633 91.043923,42.210308 92.255311,41.803482 c 0.666264,-0.223755 3.591264,-2.657992 6.5,-5.409417 2.908739,-2.751425 6.045899,-5.419378 6.971459,-5.928784 l 1.68286,-0.926194 0.63693,2.006816 0.63694,2.006816 -2.31979,2.937102 -2.31979,2.937102 -2.16821,0.05533 c -1.19252,0.03043 -2.880016,0.328474 -3.75,0.662318 l -1.581787,0.606988 0,1.294235 0,1.294235 3.681577,2.172181 3.68157,2.17218 6.7243,0.563742 6.72431,0.563741 1.174,-1.887146 c 0.6457,-1.03793 2.82556,-5.898805 4.84412,-10.801943 l 3.67012,-8.914797 10.90982,-0.207581 10.90982,-0.207581 7.20261,3.885041 7.20262,3.88504 4.75721,6.055168 4.75721,6.055168 3.83776,-0.277095 c 2.11077,-0.152402 4.07459,-0.04027 4.36404,0.24919 l 0.52629,0.526284 -21.80976,22.18298 c -11.99536,12.200639 -22.07514,22.18298 -22.39951,22.18298 -0.32436,0 -10.24761,-9.93929 -22.05167,-22.087312 z m 20.68657,-24.494475 c 0.33385,-0.869984 0.60699,-2.669984 0.60699,-4 l 0,-2.418213 -0.87139,0 c -0.47926,0 -2.84176,1.781544 -5.25,3.958987 l -4.37861,3.958987 4.64301,0.04101 4.64301,0.04101 0.60699,-1.581787 z"
         style="fill:#f76552" />
      <path
         inkscape:connector-curvature="0"
         id="path3101"
         d="M 119.45658,72.72246 C 109.87962,62.969806 100.27316,53.096746 98.1089,50.782328 l -3.935023,-4.208034 0.662728,-0.662729 0.662729,-0.662728 4.607836,1.759747 4.60783,1.759748 15.90079,0.06496 15.90079,0.06496 0.66612,-0.666126 0.66613,-0.666125 0.0976,-6.264213 0.0975,-6.264207 -2.25,0.23821 -2.25,0.238211 0,-0.881222 c 0,-0.484672 0.77892,-1.180119 1.73093,-1.545439 l 1.73092,-0.664218 0.35241,1.057229 0.35241,1.057229 1.89361,0 1.89362,0 1.63806,-2.5 1.63806,-2.5 2.90695,0 2.90695,0 6.22804,2.838307 6.22804,2.838308 4.88951,6.254811 4.88951,6.254812 3.36049,-0.392318 3.36049,-0.392319 0,0.860906 c 0,1.296914 -18.14255,19.28049 -20.90163,20.718472 l -2.40163,1.251689 0.62025,-1.616334 0.62024,-1.616334 -2.24611,0 -2.2461,0 -2.2301,1.562018 -2.23009,1.562017 -0.5994,-1.562017 -0.59941,-1.562018 -1.56426,0 -1.56428,0 -1.90534,1.724311 -1.90534,1.724311 -2.87888,-1.652252 -2.87888,-1.652251 -0.61904,1.950412 -0.61904,1.950411 0.69,3.227529 c 0.37949,1.775141 1.14773,3.795578 1.70719,4.48986 l 1.01721,1.262331 1.11732,-0.925619 1.11732,-0.92562 2.37694,1.926368 2.37694,1.926368 -2.79329,4.030713 c -1.53631,2.216892 -3.09523,4.217326 -3.46428,4.445409 l -0.67099,0.414696 -17.41266,-17.732098 z m 19.08734,1.374138 c 0,-0.242541 0.45,-0.719098 1,-1.059017 l 1,-0.618034 0,1.059017 0,1.059017 -1,0 c -0.55,0 -1,-0.198442 -1,-0.440983 z m -16,-31.002786 c 0,-0.378243 0.46584,-1.55813 1.03519,-2.621972 l 1.03518,-1.934259 1.54815,0 1.54815,0 -0.38814,1.164418 c -0.21348,0.640429 -1.37598,1.820317 -2.58333,2.621972 l -2.1952,1.457554 0,-0.687713 z"
         style="fill:#f94a33" />
      <path
         inkscape:connector-curvature="0"
         id="path3097"
         d="m 130.70799,84.206851 -3.19923,-3.300769 0.61735,-0.617353 0.61735,-0.617354 2.42421,1.104542 2.42421,1.104543 0.59612,2.375131 c 0.90236,3.595283 0.0402,3.583208 -3.48001,-0.04874 z M 105.43316,58.291813 c -5.40015,-5.639828 -9.834381,-10.640516 -9.853846,-11.11264 l -0.03539,-0.858408 2.75,0.70637 c 1.5125,0.388503 5.449996,1.256468 8.749996,1.92881 l 6,1.22244 2.41755,3.679598 2.41754,3.679598 1.83246,0 1.83245,0 0,-1.5 0,-1.5 0.87756,0 c 0.48265,0 1.41053,0.642198 2.06195,1.427106 l 1.18439,1.427105 4.61619,1.572895 4.61619,1.572894 3.80163,0 3.80162,0 3.77024,-1.46373 3.77023,-1.46373 3.42917,0.21373 3.42917,0.21373 2.32083,-3.397883 c 1.27646,-1.868836 2.32083,-4.006336 2.32083,-4.75 l 0,-1.352117 -1.44098,0 c -0.79254,0 -1.73128,-0.469712 -2.08609,-1.043805 l -0.64511,-1.043805 1.24816,-1.503932 1.24815,-1.503933 -0.15487,-3.952262 -0.15486,-3.952263 1.7428,0.0082 1.7428,0.0082 4.85554,6.0889 4.85553,6.0889 3.39447,-0.396285 3.39446,-0.396314 0,0.558745 c 0,0.30731 -3.73478,4.49195 -8.29952,9.2992 l -8.29953,8.740454 -1.14146,0 c -0.6278,0 -1.35691,-0.348613 -1.62024,-0.774694 l -0.47879,-0.774695 -13.83023,0.137846 -13.83023,0.137846 -4,0.755353 c -2.2,0.415444 -4.45,1.088705 -5,1.496135 -0.55,0.407431 -2.52827,1.031008 -4.39615,1.385728 l -3.39616,0.644944 -9.81845,-10.254231 z"
         style="fill:#d53126" />
    </g>
  </g>
</svg>
